<svg width="41" height="28" viewBox="0 0 41 28" fill="none" xmlns="http://www.w3.org/2000/svg">
<g id="azmoon gaj 2" clip-path="url(#clip0_148_3782)">
<g id="Layer 1">
<path id="Vector" d="M12.7391 2.82274H28.4826C31.2915 2.82274 33.8426 3.94571 35.6884 5.75416C37.5301 7.55857 38.6726 10.0464 38.6726 12.7823V15.2178C38.6726 17.9536 37.5301 20.4415 35.6884 22.2459C33.8426 24.0543 31.2915 25.1773 28.4826 25.1773H12.7391C9.93011 25.1773 7.37907 24.0543 5.5333 22.2459C3.69155 20.4415 2.4926 17.9536 2.4926 15.2178V12.7823C2.4926 10.0464 3.69155 7.55857 5.5333 5.75416C7.37907 3.94571 9.93011 2.82274 12.7391 2.82274ZM28.4806 0.494141H12.7391C9.30344 0.494141 6.1761 1.87517 3.90515 4.09894C1.63218 6.32673 0 9.39927 0 12.7823V15.2178C0 18.6008 1.63218 21.6733 3.90515 23.9011C6.17408 26.1249 9.30142 27.5059 12.7391 27.5059H28.4826C31.9182 27.5059 35.0456 26.1249 37.3165 23.9011C39.5915 21.6733 41.002 18.5988 41.002 15.2178V12.7823C41.002 9.39927 39.5915 6.32673 37.3165 4.09894C35.0435 1.87517 31.9182 0.494141 28.4806 0.494141Z" fill="white"/>
<path id="Vector_2" d="M34.713 14.6452L34.5336 16.0766C34.5236 16.1512 34.5115 16.1956 34.4994 16.2097C34.4792 16.2339 34.4188 16.2561 34.3221 16.2722L30.9831 16.8407C31.8496 17.4778 32.2808 18.1411 32.2808 18.8286C32.2808 19.8488 31.7428 20.5645 30.6688 20.9778C30.0582 21.2137 29.355 21.3306 28.559 21.3306L20.4062 21.3346V21.3286H19.9891C17.8673 21.3286 16.8073 20.6451 16.8073 19.2742C16.8073 18.6875 16.7711 17.9214 16.7046 16.9698C16.632 15.9637 16.5534 15.3004 16.4749 14.9738C16.4346 14.8146 16.4809 14.6976 16.6119 14.6271L19.0803 13.5505C19.2476 13.4779 19.3644 13.4396 19.4269 13.4396C19.4994 13.4396 19.5377 13.4799 19.5377 13.5646V18.1895C19.5397 18.6573 19.846 18.9113 20.4566 18.9496L27.9787 18.9456C28.7888 18.9456 29.4033 18.9173 29.8184 18.8609C30.0018 18.8367 30.0905 18.7843 30.0905 18.7036C30.0905 18.6593 30.0542 18.6068 29.9797 18.5504C29.6673 18.3105 28.9258 17.8609 27.747 17.1976L28.146 15.8811C28.152 15.8609 28.1701 15.8347 28.2125 15.8024L34.5639 14.5404C34.6364 14.5263 34.6828 14.5222 34.7009 14.5303C34.713 14.5484 34.715 14.5847 34.7089 14.6472M34.8863 13.6815L34.7936 14.1714L28.2729 15.4799L28.4341 14.9133L34.8863 13.6835V13.6815ZM15.7454 14.865L15.0865 16.2782H14.5243C13.2306 16.2782 12.1284 16.4758 11.2196 16.873C10.1577 17.3367 9.62574 17.9718 9.62574 18.7843C9.62574 19.5907 10.1194 20.1371 11.1028 20.4274C11.6609 20.5927 12.4569 20.6734 13.4926 20.6734H14.2543L14.9253 20.6673C15.6366 20.6592 15.9933 20.758 15.9933 20.9596C15.9933 21.1532 15.7152 21.3266 15.1631 21.4858C14.3812 21.7076 13.1924 21.8185 11.5944 21.8185C10.0429 21.8185 8.78749 21.6229 7.82027 21.2278C6.67774 20.7621 6.10547 20.0766 6.10547 19.1693C6.10547 17.8952 7.69936 16.9335 10.8851 16.2843C9.70433 16.1895 9.01317 16.1432 8.80965 16.1432C8.35425 16.1432 7.97945 16.1996 7.68123 16.3125C7.54018 16.3649 7.35681 16.4657 7.12911 16.617C6.96186 16.7299 6.79864 16.7863 6.64953 16.7863C6.3372 16.7863 6.18003 16.6734 6.18003 16.4456C6.18003 16.1049 6.3513 15.7178 6.68983 15.2843C7.20367 14.6311 7.93714 14.3025 8.88622 14.3005C9.3658 14.3005 10.0852 14.3367 11.0463 14.4053C12.0035 14.4759 12.7229 14.5101 13.2024 14.5101H15.4734C15.7112 14.5101 15.83 14.5444 15.83 14.619C15.83 14.6654 15.8039 14.748 15.7454 14.867M14.4921 18.6411C14.5727 18.6875 14.5706 18.7359 14.486 18.7883L13.3495 19.498C13.2689 19.5484 13.1843 19.5484 13.0997 19.5L11.941 18.8044C11.8483 18.75 11.8564 18.6855 11.9632 18.6189L13.0312 17.9516C13.1238 17.8931 13.2186 17.8931 13.3213 17.9516L14.49 18.6391L14.4921 18.6411Z" fill="white"/>
<path id="Vector_3" d="M7.25204 7.81866L10.7381 7.77833C11.1935 7.78438 11.5763 7.9114 11.7174 8.29042C11.808 8.5384 11.7536 8.9013 11.7174 9.03437C11.5481 8.72389 11.2196 8.61703 10.7441 8.60494C9.57941 8.57469 8.35628 8.65131 7.18957 8.64324C6.56088 8.63921 6.04301 8.6009 6.29691 7.76825C6.54274 6.95979 6.68379 6.86705 7.72356 6.47795C7.90894 6.4094 8.15276 6.33279 8.32807 6.18359L8.20313 6.88117C8.11649 7.31664 6.90142 7.18358 6.68379 7.64325L6.69185 7.67148V7.6735V7.67551L6.69991 7.68761L6.70395 7.69164L6.71604 7.70374H6.71805V7.70777C6.79261 7.77228 6.95381 7.81261 7.24196 7.81462" fill="white"/>
<path id="Vector_4" d="M25.4558 10.2017C25.4014 10.0988 25.3047 9.98996 25.1656 9.87908L24.8432 9.62101V9.76214C24.8432 10.0202 24.7666 10.1896 24.6115 10.2722L24.9661 10.4012L25.3127 10.5101C25.4074 10.4335 25.4538 10.3307 25.4538 10.2017M24.4503 9.46174C24.2004 9.42747 24.0231 9.44965 23.876 9.62706C23.7511 9.78029 23.8035 9.86496 23.9445 9.9698C24.0352 10.0363 24.144 10.0767 24.2508 10.125C24.5107 9.9577 24.545 9.73392 24.4503 9.46174ZM21.5607 7.70572L21.2041 8.49603C21.0872 8.45369 20.9764 8.43151 20.8696 8.43151C20.523 8.43151 20.2389 8.68554 20.0192 9.19158C20.0273 9.26416 20.1441 9.33271 20.3678 9.39723L20.9925 9.57666C21.2182 9.64118 21.3209 9.77021 21.3209 9.89924C21.3209 10.0283 21.2907 10.2198 21.2242 10.4859C21.1658 10.7218 21.1073 10.9133 21.0509 11.0585C20.9905 11.1008 20.9038 11.1512 20.7869 11.2057C20.1603 11.5061 19.4953 11.746 18.79 11.746V10.8891H18.9472C19.1749 10.8891 19.5195 10.8508 19.9789 10.7379C20.4404 10.625 20.7607 10.5081 20.9421 10.3871C20.6257 10.1674 20.2852 10.1432 19.9346 10.0182C19.7915 9.96778 19.6525 9.89722 19.5578 9.7823C19.5578 9.67948 19.6001 9.46779 19.6867 9.15126C19.8016 8.7299 19.9567 8.37909 20.1562 8.10087C20.4222 7.72991 20.7325 7.54644 21.0892 7.54644C21.198 7.54644 21.3532 7.57668 21.5506 7.63918L22.1128 7.04443C22.1894 7.16943 22.2499 7.35088 22.268 7.5908C22.2881 7.88515 22.3063 8.1916 22.3063 8.48595V9.41336C22.3063 9.69763 22.3264 9.89924 22.3647 10.0182C22.4352 10.242 22.5763 10.3529 22.7959 10.3529H23.5516C23.3944 10.2561 23.2171 10.0726 23.2171 9.87706C23.2171 9.76617 23.2836 9.6311 23.4367 9.49198C23.4992 9.43352 23.6281 9.33271 23.8417 9.25408L24.0674 9.16941L23.6946 8.94965L23.7712 8.0666L23.8679 8.12506L24.138 8.29845L24.3697 8.45974L24.5752 8.60691L24.9561 8.90328C25.2684 9.14723 25.5444 9.41134 25.7802 9.69561C25.8004 10.0625 25.7762 10.369 25.613 10.7137C25.5303 10.8851 25.4457 11.0121 25.355 11.0928C25.1878 11.0787 25.077 11.0605 25.0205 11.0484L24.8412 11.0101L24.7324 10.9779C24.5168 10.9154 24.3314 10.8468 24.1722 10.7783L23.9143 10.9335L23.7027 11.0484C23.4972 11.1613 23.3017 11.2158 23.1163 11.2158H22.7355C22.4574 11.2158 22.2478 11.1391 22.1048 10.9899C21.9899 10.869 21.9033 10.6492 21.8469 10.3267C21.8086 10.1109 21.7884 9.73996 21.7884 9.21376C21.7884 8.84885 21.7783 8.58272 21.7562 8.41538C21.726 8.1795 21.6615 7.9416 21.5647 7.70168" fill="white"/>
<path id="Vector_5" d="M14.3754 10.1754C14.3754 10.4496 14.2645 10.8065 14.0409 11.244C13.8313 11.6512 13.6076 11.9677 13.39 12.1774L13.3013 12.1653C13.0051 12.123 12.5417 11.9052 12.2979 11.7137C12.7009 11.5081 13.0394 11.3065 13.3094 11.1089C13.658 10.8528 13.8656 10.6069 13.9341 10.375C13.8353 10.1049 13.6419 9.87502 13.3557 9.68551L13.787 8.84277C13.9421 8.97987 14.0791 9.18349 14.198 9.45365C14.3189 9.72381 14.3774 9.96373 14.3774 10.1754" fill="white"/>
<path id="Vector_6" d="M7.99792 10.1754C7.99792 10.4496 7.88709 10.8065 7.66342 11.244C7.45385 11.6512 7.23825 11.9617 7.02062 12.1714C6.65187 12.129 6.20252 11.9758 5.92041 11.7137C6.32342 11.5081 6.66194 11.3065 6.92994 11.1089C7.27855 10.8528 7.4861 10.6069 7.55461 10.375C7.45587 10.1049 7.26243 9.87502 6.97629 9.68551L7.40751 8.84277C7.56267 8.97987 7.69969 9.18349 7.81858 9.45365C7.93948 9.72381 7.99993 9.96373 7.99993 10.1754" fill="white"/>
<path id="Vector_7" d="M12.0277 9.89322C12.0116 9.96983 11.9814 10.0686 11.9411 10.1896L11.8444 10.4718L11.792 10.6069L11.7597 10.6714C11.6912 10.8085 11.5804 10.9315 11.4252 11.0424C11.2701 11.1513 11.121 11.2057 10.9759 11.2057C10.8308 11.2057 10.6837 11.1351 10.5386 10.994C10.4318 10.8872 10.3593 10.742 10.319 10.5626C10.2666 10.7521 10.19 10.8972 10.0872 11.0001C9.95425 11.1372 9.77289 11.2057 9.54116 11.2057C9.24898 11.2057 9.01524 10.992 8.83993 10.5626C8.76739 10.7218 8.67268 10.8791 8.54372 11.0001C8.39259 11.1372 8.2334 11.2057 8.06212 11.2057H7.8042V10.3428H8.12661C8.32005 10.3428 8.47319 10.238 8.59006 10.0283C8.66261 9.89524 8.69888 9.74403 8.69888 9.57064H8.97494C8.97494 10.0868 9.16838 10.3428 9.55325 10.3428C9.70035 10.3428 9.83133 10.3005 9.94216 10.2178C10.0792 10.115 10.1477 9.99806 10.19 9.83475C10.2142 9.74403 10.2222 9.65532 10.2222 9.57064H10.5044C10.5044 9.82467 10.5386 10.0102 10.6071 10.1311C10.6877 10.2722 10.8207 10.3428 11.0061 10.3428C11.131 10.3428 11.2257 10.3186 11.3466 10.2843C11.4413 10.2581 11.528 10.2138 11.6046 10.1493C11.6046 10.1069 11.5381 9.98394 11.4051 9.78233L11.2056 9.47992L11.6872 8.84888C11.8806 9.0525 12.0902 9.58274 12.0237 9.8912" fill="white"/>
<path id="Vector_8" d="M12.9827 7.03442C13.0492 7.38926 13.0593 7.73603 13.0633 8.09893C13.0633 8.25417 13.0613 8.40941 13.0552 8.56465C13.0431 8.85497 13.0331 9.14529 13.0149 9.4356C13.0048 9.67955 12.9827 9.91745 12.9504 10.1594L12.9242 10.357L12.8396 10.8973L12.5253 11.3731L12.5192 10.1957C12.5152 9.67552 12.493 9.24811 12.4547 8.90739C12.4205 8.62513 12.3923 8.41949 12.3721 8.29046C12.3379 8.06264 12.2956 7.85901 12.2432 7.67958C12.489 7.46587 12.7368 7.25015 12.9827 7.03644" fill="white"/>
<path id="Vector_9" d="M18.4093 9.83475C18.3952 9.91741 18.365 10.0364 18.3126 10.1876L18.2159 10.4698L18.1655 10.6049L18.1333 10.6694C18.0647 10.8065 17.9539 10.9295 17.7988 11.0404C17.6436 11.1493 17.4945 11.2057 17.3474 11.2057C17.2003 11.2057 17.0552 11.1351 16.9101 10.994C16.8033 10.8872 16.7308 10.744 16.6925 10.5626C16.6401 10.7521 16.5635 10.8972 16.4608 11.0001C16.3278 11.1372 16.1464 11.2057 15.9147 11.2057C15.6225 11.2057 15.3888 10.992 15.2135 10.5626C15.1409 10.7218 15.0462 10.8791 14.9173 11.0001C14.7681 11.1372 14.6069 11.2057 14.4357 11.2057H14.1777V10.3428H14.5001C14.6936 10.3428 14.8467 10.238 14.9636 10.0283C15.0361 9.89524 15.0724 9.74201 15.0724 9.57064H15.3485C15.3485 10.0847 15.5419 10.3428 15.9268 10.3428C16.1545 10.3428 16.3379 10.244 16.4789 10.0464C16.5555 9.87911 16.5938 9.71983 16.5938 9.57064H16.8759C16.8759 9.82467 16.9101 10.0102 16.9786 10.1311C17.0592 10.2722 17.1922 10.3428 17.3776 10.3428C17.5025 10.3428 17.5973 10.3186 17.7182 10.2843C17.8129 10.2581 17.8975 10.2138 17.9761 10.1493C17.9761 10.1069 17.9096 9.98394 17.7766 9.78233L17.5771 9.47992L18.0607 8.84888C18.2259 9.02428 18.3247 9.33073 18.3851 9.56258C18.4093 9.6533 18.4214 9.74604 18.4073 9.83475" fill="white"/>
<path id="Vector_10" d="M27.3057 9.09083L26.8422 9.60695L26.3042 9.16139L26.7717 8.64124L27.3057 9.09083Z" fill="white"/>
<path id="Vector_11" d="M33.8989 8.43555L33.4355 8.95168L32.8975 8.5041L33.365 7.98596L33.8989 8.43555Z" fill="white"/>
<path id="Vector_12" d="M29.8003 9.90333C29.7278 9.75414 29.623 9.61503 29.486 9.486C29.3872 9.40938 29.2986 9.37108 29.2159 9.37108C29.1736 9.39729 29.1152 9.43962 29.0426 9.50011L28.9842 9.60293L28.9137 9.76422C28.9318 9.79849 28.9943 9.84688 29.1051 9.91139L29.1696 9.93155L29.2845 9.95776L29.3993 9.97793H29.4698L29.629 9.96583L29.7197 9.94567C29.7399 9.94164 29.766 9.92954 29.7963 9.90736M30.2638 10.2279C30.2638 10.986 29.9474 11.7279 29.3147 12.4537H29.1857L29.0971 12.4416L29.0064 12.4214L28.9479 12.4154L28.9278 12.4093L28.8955 12.4033L28.8049 12.3771L28.7021 12.3448C28.4502 12.2682 28.2487 12.1755 28.0996 12.0686C28.9802 11.7138 29.5867 11.2138 29.9212 10.5666L29.7983 10.6029L29.6653 10.6372L29.5242 10.6574L29.3771 10.6634C29.0608 10.6755 28.7706 10.5747 28.5046 10.361C28.5046 9.76623 28.6618 9.29245 28.9802 8.9356C29.0749 8.82875 29.1736 8.7481 29.2744 8.69165C29.6129 8.69165 29.8708 8.8731 30.0502 9.23801C30.1912 9.52027 30.2617 9.85091 30.2617 10.2259" fill="white"/>
<path id="Vector_13" d="M32.3295 10.488V10.4235L32.3356 10.365C32.3356 10.1433 32.2731 9.9719 32.1502 9.85093C32.0696 9.77029 31.9185 9.69973 31.7008 9.63924C31.5779 9.71585 31.4953 9.83884 31.457 10.0042C31.5134 10.0808 31.6222 10.1735 31.7834 10.2804C31.8822 10.3449 32.0635 10.4134 32.3295 10.486M32.8031 10.2239L32.6882 10.4739L32.5471 10.73C32.4524 10.9013 32.3477 11.0283 32.2328 11.115H32.0716L32.0011 11.1029L31.9043 11.0767L31.7955 11.0364C31.6666 10.99 31.5557 10.9235 31.4631 10.8408L31.1991 10.607C31.054 10.8812 30.8847 11.0183 30.6933 11.0183H30.1069V10.1594H30.784C30.8182 10.1594 30.919 10.105 31.0137 9.94166L31.2898 9.46586C31.4147 9.25215 31.5296 9.09086 31.6363 8.98401C32.0595 8.98401 32.3638 9.08481 32.5471 9.28642C32.7184 9.47795 32.8031 9.79045 32.8031 10.2219" fill="white"/>
<path id="Vector_14" d="M34.0279 10.2722C34.0279 10.5464 33.9171 10.9012 33.6955 11.3387C33.4859 11.746 33.2723 12.0524 33.0547 12.2621L32.958 12.2561C32.9015 12.252 32.8491 12.242 32.7988 12.2238L32.4905 12.1149C32.2587 12.0343 32.0814 11.9315 31.9585 11.8065C32.3595 11.6008 32.696 11.4012 32.966 11.2037C33.3126 10.9476 33.5202 10.7037 33.5887 10.4718C33.4899 10.2017 33.2985 9.97383 33.0103 9.78432L33.4395 8.9436C33.5947 9.0807 33.7297 9.28433 33.8506 9.55247C33.9695 9.82263 34.03 10.0605 34.03 10.2702" fill="white"/>
<path id="Vector_15" d="M34.7392 7.04846L34.7775 7.28636L34.7956 7.52426L34.8218 8.19159L34.8097 8.42345L34.7956 8.87304L34.7835 9.13513L34.7634 9.44359C34.7634 9.55045 34.7574 9.69359 34.7432 9.87302L34.6788 10.3609L34.5962 10.8992L34.2758 11.373V10.1996C34.2758 9.14319 34.1811 8.30651 33.9937 7.6916L34.7372 7.05048L34.7392 7.04846Z" fill="white"/>
<path id="Vector_16" d="M35.0799 6.76423C35.0799 6.83681 34.9711 6.91544 34.7515 7.00213C34.4391 7.1231 34.2054 7.12108 33.8769 7.12108C33.8527 7.20979 33.7983 7.33277 33.7137 7.486C33.6674 7.49406 33.5283 7.48197 33.5122 7.42148C33.5122 7.31261 33.5303 7.17552 33.5666 7.0102C33.615 6.80254 33.6754 6.6977 33.748 6.69165C33.9535 6.73197 34.1328 6.76826 34.3424 6.74205C34.5177 6.71988 34.695 6.67149 34.8502 6.60899L35.0698 6.50012L35.0779 6.76423H35.0799Z" fill="white"/>
<path id="Vector_17" d="M28.2751 9.79239C28.2751 10.0404 28.2408 10.2662 28.1723 10.4718C28.1501 10.5565 28.1159 10.6815 28.0695 10.8448C27.9023 11.0545 27.6544 11.2379 27.326 11.3972C26.9331 11.5847 26.5139 11.6795 26.0686 11.6795H26.0605V10.8267C26.1109 10.8307 26.1613 10.8327 26.2157 10.8327C26.4978 10.8327 26.7981 10.7863 27.1124 10.6916C27.4973 10.5807 27.7512 10.4335 27.8761 10.248C27.7814 9.7561 27.59 9.37103 27.2998 9.0928L27.6464 8.23999C27.8136 8.4416 27.9567 8.68555 28.0756 8.97184C28.2086 9.28433 28.2751 9.55852 28.2751 9.79239Z" fill="white"/>
</g>
</g>
<defs>
<clipPath id="clip0_148_3782">
<rect width="41" height="27.0118" fill="white" transform="translate(0 0.494141)"/>
</clipPath>
</defs>
</svg>
