<svg width="31" height="30" viewBox="0 0 31 30" fill="none" xmlns="http://www.w3.org/2000/svg">
<g id="Gaj International Publications Logo">
<g id="Layer_1-2">
<path id="Vector" d="M6.27215 2.31832L6.29169 2.28253C6.31123 2.26464 6.33076 2.26464 6.33076 2.24675L6.3503 2.21097L6.38937 2.17518L6.42844 2.15729L6.46751 2.1394L6.50659 2.12151L6.54566 2.10362L6.56519 2.06783L6.60427 2.04994L6.64334 2.03205L6.68241 2.01416L6.72148 1.99627L6.76055 1.97837L6.79963 1.96048L6.8387 1.94259C6.99499 1.90681 7.13174 1.88892 7.26849 1.88892C7.50292 1.88892 7.73736 1.90681 7.97179 1.94259C8.24529 1.99627 8.49926 2.06783 8.75323 2.15729C9.04627 2.26464 9.33931 2.37199 9.63235 2.51512C9.96447 2.67615 10.277 2.83717 10.5896 3.01609C11.2734 3.4276 11.9376 3.87489 12.5628 4.35797C13.2074 4.85893 13.8131 5.37779 14.3796 5.93243C14.9657 6.50496 15.5322 7.11328 16.0402 7.73949C19.4199 11.8546 19.1073 13.8763 16.2746 17.6336C15.7862 18.2777 15.2587 18.9218 14.6922 19.5122C14.1452 20.0847 13.5591 20.6394 12.9535 21.1582C12.3479 21.6592 11.7032 22.1423 11.0389 22.5717C10.7459 22.7685 10.4333 22.9474 10.1012 23.1084C9.82771 23.2516 9.53467 23.3768 9.24163 23.502C8.98766 23.6094 8.7337 23.681 8.46019 23.7346C8.3039 23.7704 8.16715 23.7883 8.01086 23.8062C7.85457 23.8241 7.69828 23.8241 7.56153 23.8062C6.79963 23.7346 6.40891 23.0548 6.03772 22.518C5.80329 22.1781 5.60793 21.8202 5.4321 21.4624C5.25628 21.0867 5.08045 20.6931 4.92417 20.2637C4.76788 19.8343 4.65066 19.4227 4.51391 18.9755C3.83015 16.5243 3.43943 13.9121 3.61525 11.3536C3.65432 10.8347 3.6934 10.3159 3.752 9.79703C3.81061 9.27817 3.86922 8.7951 3.94736 8.29413C4.02551 7.79316 4.12319 7.32798 4.22087 6.88069C4.31855 6.4334 4.4553 5.98611 4.59205 5.55671C4.72881 5.12731 4.88509 4.73369 5.04138 4.34007C5.19767 3.96435 5.39303 3.60652 5.60793 3.24868C5.80329 2.92663 6.01818 2.60458 6.27215 2.31832ZM15.8839 11.6399C15.8057 11.2641 15.7276 10.8884 15.6104 10.4948C15.4736 10.0117 15.2978 9.52865 15.0829 9.06347C14.9071 8.63407 14.6727 8.22256 14.4382 7.82895C14.2038 7.47111 13.9498 7.13117 13.6568 6.79123C11.4492 4.39375 9.55421 7.65003 7.95225 12.2661C6.72148 16.9716 6.52612 20.6573 9.76911 19.6196C10.1989 19.4764 10.6092 19.3154 11.0194 19.1007C11.4492 18.8681 11.879 18.6176 12.2697 18.3314C12.719 18.0272 13.1293 17.6873 13.5396 17.3473C13.8521 17.0789 14.1452 16.7927 14.4187 16.5064C14.6922 16.2201 14.9462 15.916 15.2001 15.6118C16.2355 14.2878 16.1769 13.1786 15.8839 11.6399Z" fill="white"/>
<path id="Vector_2" d="M8.26417 15.2542C8.2251 15.1468 8.20557 15.0395 8.20557 14.9142C8.20557 14.789 8.2251 14.6816 8.26417 14.5564C8.30325 14.4133 8.36185 14.288 8.44 14.1628C8.55722 13.9481 8.69397 13.7513 8.86979 13.5724C9.04562 13.3577 9.26051 13.143 9.47541 12.964C9.70984 12.7493 9.96381 12.5525 10.2373 12.3378C10.5304 12.1231 10.8429 11.9084 11.175 11.6937C12.5816 10.8349 14.1055 10.1193 15.6879 9.56463C16.4889 9.29625 17.2898 9.04577 18.1299 8.86685C23.4437 7.63233 25.0066 8.79529 26.7062 12.9819C26.9992 13.7155 27.2532 14.4669 27.4681 15.2184C27.8784 16.7213 28.1128 18.2779 28.1323 19.8344C28.1323 20.2102 28.1323 20.568 28.0933 20.9079C28.0542 21.2479 28.0151 21.552 27.9565 21.8383C27.8979 22.1067 27.8393 22.3751 27.7416 22.6434C27.6635 22.876 27.5658 23.0907 27.4486 23.3054C27.3704 23.4307 27.2923 23.538 27.1946 23.6454C27.1555 23.699 27.0969 23.7348 27.0579 23.7885C27.0188 23.8243 26.9602 23.8601 26.9016 23.8958L26.8234 23.9495C26.8039 23.9674 26.7648 23.9853 26.7453 23.9853C26.6867 24.0032 26.6281 24.039 26.5695 24.039C25.788 24.2537 24.987 24.361 24.1861 24.361C23.3069 24.361 22.4083 24.2716 21.5487 24.1105C20.5914 23.9316 19.6732 23.699 18.755 23.4128L18.4034 23.3054L18.0517 23.1802L17.7001 23.0549L17.3484 22.9297C17.2312 22.8939 17.114 22.8402 16.9968 22.7866L16.6256 22.6434C14.5939 21.8562 12.6989 20.4964 11.0969 19.083C10.7648 18.7788 10.4522 18.4926 10.1592 18.1884C9.86613 17.8842 9.61216 17.5801 9.35819 17.258C9.12376 16.9539 8.90886 16.6139 8.73304 16.2919C8.53768 15.9519 8.38139 15.612 8.26417 15.2542ZM21.3533 10.7276C20.9821 10.6202 20.611 10.5487 20.2398 10.4771C19.7318 10.3876 19.2434 10.334 18.7355 10.3161C18.2666 10.2982 17.7978 10.3161 17.3289 10.3698C16.8991 10.4234 16.4498 10.495 16.0395 10.6202C12.8161 11.5327 14.5743 14.6459 17.661 18.0989C21.0212 21.2658 24.0688 23.037 24.9089 19.6913C25.0261 19.244 25.1042 18.7967 25.1433 18.3494C25.1824 17.8664 25.2019 17.3833 25.1629 16.9002C25.1433 16.3813 25.0847 15.8625 24.987 15.3436C24.9284 14.95 24.8307 14.5564 24.7331 14.1986C24.6354 13.8407 24.5182 13.465 24.3814 13.1072C23.7953 11.5506 22.8185 11.1212 21.3533 10.7276Z" fill="white"/>
<path id="Vector_3" d="M16.0005 12.3913C15.9615 12.1587 15.9224 11.9082 15.8833 11.6578C15.8052 11.282 15.7075 10.9063 15.6098 10.5127C15.4731 10.0296 15.2972 9.54654 15.0824 9.06346C14.9065 8.63406 14.6721 8.22256 14.4377 7.82894C14.2423 7.50689 14.0079 7.20273 13.7734 6.91646L14.3009 5.82507L14.3986 5.93242C14.9847 6.50496 15.5512 7.11327 16.0592 7.73948C17.8369 9.94015 18.5988 11.5504 18.4816 13.1249C17.9737 12.9638 17.4462 12.8386 16.9187 12.7134L16.7234 12.6239L16.6257 12.5881C16.4694 12.5344 16.2936 12.4808 16.1178 12.4629C16.0787 12.4271 16.0396 12.4092 16.0005 12.3913Z" fill="white"/>
<path id="Vector_4" d="M22.0951 7.93629C19.7117 7.95418 17.3478 8.40147 15.1598 9.27816C15.1403 9.2066 15.1012 9.13503 15.0817 9.08135C14.9254 8.74141 14.7691 8.40147 14.5737 8.07942C16.9571 7.16695 19.5164 6.68387 22.0951 6.6123V7.93629Z" fill="white"/>
<path id="Vector_5" d="M6.66309 24.701H9.92561V27.689H6.66309V24.701Z" fill="white"/>
</g>
</g>
</svg>
