<svg width="51" height="18" viewBox="0 0 51 18" fill="none" xmlns="http://www.w3.org/2000/svg">
<g id="gajino-active" clip-path="url(#clip0_148_3564)">
<path id="Vector" d="M36.5514 5.1165C36.9414 3.67394 37.7136 3.07755 38.7867 3.00108C39.8597 2.92462 41.2283 3.38084 42.4313 3.90077C43.6368 4.43345 44.6665 5.04004 45.4592 5.66956C46.2416 6.28889 46.7718 6.92862 46.8049 7.57854C46.8278 8.22845 46.3589 8.90133 45.556 9.65065C44.743 10.4 43.6037 11.2359 42.3217 11.8425C41.0296 12.4389 39.587 12.8187 38.5343 12.6555C37.4715 12.5026 36.7885 11.8094 36.4623 10.3234C36.1284 8.83761 36.1488 6.55906 36.5514 5.1165ZM49.3332 2.41489C48.0104 1.45913 45.4388 0.809209 42.9002 0.549242C40.3617 0.289275 37.8539 0.409064 36.1411 0.776075C34.4258 1.13289 33.5058 1.74203 32.833 2.50154C32.1601 3.26105 31.7268 4.18368 31.9001 5.80974C32.0633 7.44855 32.833 9.80352 34.0486 11.9291C35.2644 14.0675 36.9338 15.9765 38.3891 16.7564C39.8316 17.549 41.0703 17.2024 42.523 16.3664C43.9758 15.5304 45.6477 14.1975 47.0699 12.3625C48.4793 10.5401 49.6415 8.19534 50.1844 6.40614C50.7222 4.60677 50.6559 3.3579 49.3332 2.41489Z" fill="white"/>
<path id="Vector_2" opacity="0.65" d="M35.965 5.94989C36.1052 4.46401 36.7678 3.74783 37.8103 3.48786C38.8527 3.22789 40.285 3.42159 41.5645 3.73763C42.8338 4.05112 43.9628 4.464 44.8421 4.94316C45.7214 5.43251 46.3509 5.96264 46.5013 6.60236C46.6415 7.24208 46.2949 7.98117 45.622 8.85792C44.9594 9.73724 43.9832 10.7567 42.8235 11.5697C41.6639 12.3828 40.3054 13.0021 39.2426 13.0353C38.1697 13.0684 37.377 12.5026 36.7908 11.1034C36.2046 9.6939 35.8248 7.43833 35.965 5.94989ZM48.0841 1.06915C46.6185 0.363164 43.9832 0.169464 41.4319 0.35297C38.8934 0.536475 36.4416 1.08954 34.813 1.74201C33.1972 2.40467 32.3943 3.15143 31.8514 4.02054C31.3188 4.88964 31.0588 5.86579 31.5048 7.44852C31.961 9.03383 33.1206 11.2129 34.6958 13.1016C36.2581 14.9901 38.2334 16.5856 39.7957 17.1055C41.3682 17.6254 42.5203 17.0724 43.8099 15.9994C45.0894 14.9264 46.5115 13.3181 47.5845 11.269C48.6575 9.21731 49.3966 6.71195 49.6234 4.8565C49.8426 2.98831 49.5597 1.77259 48.0841 1.06915Z" fill="white"/>
<path id="Vector_3" d="M12.0484 9.68692C12.2109 8.95874 12.0833 8.2073 11.413 7.72283C10.9054 7.36308 10.2236 7.27314 9.58818 7.24992C9.01083 7.21511 8.05057 7.24993 7.31077 7.26154C7.05545 7.27314 6.86108 7.48203 6.87267 7.73443L6.89589 8.70632C6.89589 8.83397 6.84947 8.93844 6.75663 9.03124C6.67539 9.12412 6.55935 9.17048 6.4317 9.17048H4.94048L4.92887 8.63958C4.91727 8.36109 4.89405 8.17829 4.81283 7.94624C4.63875 7.46171 4.18906 7.13678 3.62333 6.98592C2.90673 6.78864 1.88842 6.78864 1.31108 7.28764C0.71053 7.79536 0.536453 8.88329 0.617687 9.63473C0.72213 10.4558 1.06738 11.0099 1.88842 11.2536L1.56348 12.0166L0.939717 13.3106L0.536454 14.0968C0.45522 14.2592 0.513247 14.4449 0.675714 14.5232L2.24816 15.3443C2.39902 15.4255 2.5963 15.3675 2.67464 15.205L3.07791 14.4188C3.62043 13.3656 3.91055 12.6259 4.36024 11.5524C5.45689 11.5988 6.31275 11.5872 7.33108 11.564C7.58638 11.5524 7.78076 11.3435 7.78076 11.1028L7.75754 10.1076C7.74594 9.86389 7.95483 9.65791 8.19561 9.64632C8.65689 9.63473 9.14432 9.62314 9.55917 9.65791C9.41992 10.1309 9.3503 10.5834 9.5128 11.0795C10.0901 12.8377 12.852 12.7797 14.3665 12.594C15.5676 12.4315 16.6671 12.1443 17.6477 11.4625C18.2135 11.0708 18.7908 10.5486 18.9417 9.97124C19.0577 9.48677 18.9533 9.15018 18.7095 8.80495C18.4775 8.48003 18.109 8.18124 17.7145 7.94912C16.789 7.39499 15.7968 7.09326 14.7668 6.82926V6.84086L13.911 6.62037C13.8182 6.59716 13.7369 6.60876 13.6673 6.65518C13.5861 6.70161 13.5396 6.75963 13.5164 6.85246L13.0899 8.57579C13.0667 8.657 13.0783 8.73821 13.1248 8.8195C13.1712 8.88912 13.2408 8.93556 13.322 8.95874L14.1895 9.16761C14.8481 9.3417 15.2978 9.44617 15.9012 9.72177C14.9758 10.2062 12.9304 10.4384 11.912 10.1831L12.0484 9.68692Z" fill="white"/>
<path id="Vector_4" d="M19.8992 11.7701C20.1196 12.4518 20.4301 12.9596 21.1583 13.2729C21.7588 13.5166 22.5451 13.563 23.2268 13.5398C24.3467 13.4933 25.5971 13.2496 26.2092 12.2458C26.6358 11.5524 26.6938 10.5574 26.4645 9.71312C26.2209 8.84562 25.7132 8.24509 24.9617 7.73739L26.0468 7.18327C26.7866 6.84673 27.538 6.5595 28.2894 6.28099C28.3707 6.24617 28.4286 6.18815 28.4635 6.10692C28.4983 6.02568 28.4983 5.94445 28.4751 5.86321L27.8398 4.22114C27.7817 4.05867 27.5961 3.97743 27.4364 4.03546C26.6502 4.33718 25.748 4.67082 25.0545 4.98415V4.99576C24.0363 5.45705 22.7424 6.17364 21.9793 6.94827C22.0374 5.86032 22.165 4.79847 22.2927 3.68731C22.3042 3.59447 22.2811 3.51324 22.223 3.44361C22.165 3.37399 22.0954 3.33917 22.0141 3.32757L20.256 3.14189C20.0819 3.11868 19.9195 3.24633 19.8962 3.4204L19.8034 4.29946C19.6409 5.73266 19.5249 6.98018 19.5249 8.50623C19.5162 9.72471 19.5626 10.7053 19.8992 11.7701ZM22.2694 11.0418C22.0258 10.2905 21.9909 9.51585 21.9909 8.67161C22.2114 8.95009 22.5102 9.08645 22.8583 9.26055C23.2181 9.44623 23.7839 9.72183 24.0479 10.0235C24.2567 10.2788 24.2916 10.6589 24.2452 10.9606C23.8186 11.1695 22.7655 11.1812 22.2811 11.0883L22.2694 11.0418Z" fill="white"/>
<path id="Vector_5" d="M23.2643 3.6553L23.8184 4.80998C23.8996 4.97245 24.0853 5.04207 24.2449 4.96085L25.4692 4.38351C25.4692 4.38351 25.4808 4.38351 25.4808 4.3719L27.3521 3.62049C27.5146 3.56247 27.5958 3.37679 27.5377 3.21723L27.0649 2.01613C26.9952 1.85366 26.8096 1.77242 26.65 1.84205L26.0495 2.07415L25.3445 2.36427C24.5118 2.70081 24.1086 2.89519 23.4036 3.23173C23.2527 3.31006 23.183 3.49283 23.2643 3.6553Z" fill="white"/>
<path id="Vector_6" d="M6.77978 5.79639H7.16274C7.5573 5.79639 7.87063 5.49466 7.87063 5.11171V4.55468C7.87063 4.17171 7.5573 3.87 7.16274 3.87H6.49256C6.1096 3.87 5.78467 4.17171 5.78467 4.55468V5.11171C5.78467 5.49466 6.1096 5.79639 6.49256 5.79639H6.77978Z" fill="white"/>
<path id="Vector_7" d="M10.8852 13.3425H8.23355C7.85639 13.3425 7.55176 13.6472 7.55176 14.0243V14.5872C7.55176 14.9643 7.85639 15.2689 8.23355 15.2689H8.49173H10.8823C11.2595 15.2689 11.5642 14.9643 11.5642 14.5872V14.0243C11.567 13.6472 11.2595 13.3425 10.8852 13.3425Z" fill="white"/>
<path id="Vector_8" d="M12.208 14.0272V14.5842C12.208 14.9672 12.53 15.2689 12.9129 15.2689H13.2118H13.5948C13.9777 15.2689 14.2998 14.9672 14.2998 14.5842V14.0272C14.2998 13.6442 13.9777 13.3425 13.5948 13.3425H12.9159C12.53 13.3425 12.208 13.6442 12.208 14.0272Z" fill="white"/>
</g>
<defs>
<clipPath id="clip0_148_3564">
<rect width="50" height="17.4242" fill="white" transform="translate(0.5 0.287842)"/>
</clipPath>
</defs>
</svg>
