<svg width="61" height="14" viewBox="0 0 61 14" fill="none" xmlns="http://www.w3.org/2000/svg">
<g id="gajmarket-logo">
<path id="Vector" d="M47.9153 9.93384L46.2852 11.6388L47.9153 13.3437L48.9159 12.2981C49.2646 11.9334 49.2646 11.3427 48.9159 10.9788L47.9153 9.93384Z" fill="white"/>
<path id="Vector_2" d="M46.2442 9.57L48.0093 7.72508V6.90411C48.0093 5.02209 46.5444 3.49072 44.7445 3.49072H42.487L40.4666 5.603H44.7445C45.4301 5.603 45.9886 6.18671 45.9886 6.90411V7.4584H39.8006L37.7803 9.57068V10.125C37.7803 12.007 39.2449 13.5384 41.045 13.5384H43.6216L45.6419 11.4261H41.045C40.3589 11.4261 39.8006 10.8424 39.8006 10.125V9.57068H46.2442V9.57Z" fill="white"/>
<path id="Vector_3" d="M7.90088 3.76135H2.00128L0.224609 5.60417H7.90088V3.76135Z" fill="white"/>
<path id="Vector_4" d="M21.6738 6.90548C21.6738 5.02346 20.2092 3.49209 18.4091 3.49209H15.9296L18.4988 1.50999L17.6607 0.461548L13.118 3.97012V5.60507H18.4084C19.0946 5.60507 19.6529 6.18879 19.6529 6.90618V7.46046H12.8489C12.1848 7.46046 11.6452 6.89568 11.6452 6.20209V3.65727L9.62492 4.40406V6.20209C9.62492 6.89568 9.08469 7.46046 8.42128 7.46046H0V9.57281H8.42199C9.27882 9.57281 10.0574 9.22074 10.6351 8.6489C11.2128 9.22074 11.992 9.57281 12.8482 9.57281H19.9086L21.6732 7.72715L21.6738 6.90548Z" fill="white"/>
<path id="Vector_5" d="M23.4268 8.1843L21.0215 10.6367L22.4313 12.1492L24.9985 9.5323C25.2837 9.24186 25.4471 8.8366 25.4471 8.42088V4.27258L23.4268 5.01937V8.1843Z" fill="white"/>
<path id="Vector_6" d="M34.0878 2.33842C32.2482 2.37481 30.7928 3.98597 30.7928 5.90997V6.88353C30.7928 7.20198 30.5466 7.45952 30.242 7.45952H28.8589V1.29907L26.9731 2.04656V9.57112H30.242C31.1068 9.57112 31.8713 9.12247 32.3379 8.43588L33.103 8.9062C33.7571 9.30653 34.5008 9.51793 35.2592 9.51793H35.7432L37.5118 7.66951V5.84979C37.5118 3.89148 35.9702 2.30202 34.0878 2.33842ZM35.4922 7.40708H35.2599C34.8616 7.40708 34.47 7.29645 34.1259 7.0851L32.8132 6.27952V5.88479C32.8132 5.12749 33.3762 4.48009 34.1012 4.4507C34.863 4.4213 35.4915 5.06101 35.4915 5.85118V7.40708H35.4922Z" fill="white"/>
<path id="Vector_7" d="M57.7346 3.49375H55.8617L58.4396 1.50045L57.5784 0.648682L55.2936 2.41522L52.646 4.46311V5.60604H57.7352C58.4215 5.60604 58.9799 6.18975 58.9799 6.90714V7.46147H51.105V1.29608L49.2192 2.04287V9.57307H59.2285L61 7.72464V6.90714C60.9993 5.02443 59.5345 3.49375 57.7346 3.49375Z" fill="white"/>
<path id="Vector_8" d="M55.0761 0.55835L52.6436 2.44177V3.42722L55.6262 1.11897L55.0761 0.55835Z" fill="white"/>
</g>
</svg>
