<svg width="126" height="84" viewBox="0 0 126 84" fill="none" xmlns="http://www.w3.org/2000/svg">
<g clip-path="url(#clip0_164_4058)">
<path d="M39.1494 7.65033H87.5318C96.1643 7.65033 104.004 11.1014 109.676 16.6591C115.336 22.2043 118.848 29.85 118.848 38.2577V45.7423C118.848 54.15 115.336 61.7957 109.676 67.341C104.004 72.8986 96.1643 76.3497 87.5318 76.3497H39.1494C30.5169 76.3497 22.6772 72.8986 17.0048 67.341C11.3448 61.7957 7.6602 54.15 7.6602 45.7423V38.2577C7.6602 29.85 11.3448 22.2043 17.0048 16.6591C22.6772 11.1014 30.5169 7.65033 39.1494 7.65033ZM87.5256 0.494141H39.1494C28.591 0.494141 18.9802 4.73829 12.0012 11.5723C5.01597 18.4187 0 27.8611 0 38.2577V45.7423C0 56.1389 5.01597 65.5814 12.0012 72.4278C18.974 79.2618 28.5849 83.5059 39.1494 83.5059H87.5318C98.0901 83.5059 107.701 79.2618 114.68 72.4278C121.671 65.5814 126.006 56.1327 126.006 45.7423V38.2577C126.006 27.8611 121.671 18.4187 114.68 11.5723C107.695 4.73829 98.0901 0.494141 87.5256 0.494141Z" fill="#EC008C"/>
<path d="M106.679 43.9827L106.128 48.3817C106.097 48.611 106.06 48.7473 106.023 48.7907C105.961 48.865 105.775 48.9332 105.478 48.9827L95.217 50.73C97.8798 52.6878 99.205 54.7263 99.205 56.839C99.205 59.9741 97.5516 62.1737 94.251 63.4438C92.3746 64.1687 90.2134 64.5281 87.7673 64.5281L62.7123 64.5405V64.5219H61.4304C54.9096 64.5219 51.6524 62.4215 51.6524 58.2083C51.6524 56.4053 51.5409 54.0509 51.3365 51.1265C51.1136 48.0348 50.8721 45.9963 50.6306 44.9926C50.5067 44.5031 50.6492 44.1438 51.0517 43.9269L58.6376 40.6184C59.1515 40.3953 59.5107 40.2776 59.7027 40.2776C59.9256 40.2776 60.0433 40.4015 60.0433 40.6617V54.875C60.0495 56.3124 60.9907 57.0931 62.8671 57.2108L85.9839 57.1984C88.4733 57.1984 90.362 57.1117 91.6377 56.9382C92.2012 56.8638 92.4737 56.7027 92.4737 56.4549C92.4737 56.3186 92.3622 56.1575 92.1331 55.984C91.1733 55.2467 88.8944 53.865 85.2718 51.8266L86.4979 47.7807C86.5164 47.7188 86.5722 47.6382 86.7022 47.5391L106.221 43.6605C106.444 43.6171 106.587 43.6048 106.642 43.6295C106.679 43.6853 106.686 43.7968 106.667 43.9889M107.212 41.0211L106.927 42.5267L86.888 46.5478L87.3834 44.8067L107.212 41.0273V41.0211ZM48.3889 44.658L46.3639 49.0013H44.6362C40.6606 49.0013 37.2732 49.6085 34.4804 50.8291C31.2169 52.2541 29.5821 54.2058 29.5821 56.7027C29.5821 59.1811 31.0992 60.8601 34.1212 61.7523C35.8366 62.2604 38.2826 62.5082 41.4656 62.5082H43.8064L45.8685 62.4896C48.0545 62.4649 49.1506 62.7685 49.1506 63.388C49.1506 63.9828 48.296 64.5157 46.5992 65.0052C44.1965 65.6867 40.5429 66.0275 35.6322 66.0275C30.8639 66.0275 27.006 65.4265 24.0335 64.2121C20.5224 62.7808 18.7637 60.6743 18.7637 57.8861C18.7637 53.9704 23.662 51.015 33.4524 49.0199C29.8236 48.7287 27.6995 48.5862 27.0741 48.5862C25.6746 48.5862 24.5228 48.7597 23.6063 49.1066C23.1728 49.2677 22.6093 49.5775 21.9095 50.0422C21.3955 50.3892 20.8939 50.5627 20.4357 50.5627C19.4758 50.5627 18.9928 50.2157 18.9928 49.5156C18.9928 48.4685 19.5192 47.2789 20.5595 45.9468C22.1386 43.9393 24.3927 42.9294 27.3094 42.9232C28.7832 42.9232 30.994 43.0347 33.9478 43.2454C36.8893 43.4622 39.1 43.5676 40.5739 43.5676H47.5529C48.2836 43.5676 48.649 43.6729 48.649 43.9021C48.649 44.0447 48.5685 44.2987 48.3889 44.6642M44.5371 56.2628C44.7848 56.4053 44.7786 56.554 44.5185 56.7151L41.0259 58.8961C40.7782 59.051 40.5181 59.051 40.258 58.9023L36.6973 56.7647C36.4125 56.5974 36.4372 56.3991 36.7654 56.1947L40.0475 54.1439C40.3324 53.9642 40.6234 53.9642 40.9392 54.1439L44.5309 56.2566L44.5371 56.2628Z" fill="#10717C"/>
<path d="M22.2874 23.0036L33.0005 22.8797C34.4 22.8983 35.5766 23.2886 36.0101 24.4534C36.2887 25.2155 36.1215 26.3307 36.0101 26.7397C35.4899 25.7855 34.4805 25.4571 33.0191 25.42C29.4398 25.327 25.6809 25.5625 22.0954 25.5377C20.1633 25.5253 18.5718 25.4076 19.3521 22.8487C20.1076 20.3642 20.5411 20.0791 23.7364 18.8834C24.3061 18.6727 25.0554 18.4373 25.5942 17.9788L25.2103 20.1225C24.944 21.4608 21.2099 21.0519 20.5411 22.4645L20.5658 22.5513V22.5575V22.5637L20.5906 22.6009L20.603 22.6132L20.6401 22.6504H20.6463V22.6628C20.8755 22.8611 21.3709 22.985 22.2564 22.9912" fill="#236E27"/>
<path d="M78.2311 30.3272C78.0639 30.0112 77.7666 29.6766 77.3394 29.3358L76.3485 28.5428V28.9765C76.3485 29.7696 76.1132 30.29 75.6364 30.544L76.7263 30.9406L77.7914 31.2751C78.0825 31.0397 78.2249 30.7237 78.2249 30.3272M75.141 28.0533C74.3731 27.948 73.8282 28.0161 73.3761 28.5614C72.9922 29.0323 73.1532 29.2925 73.5867 29.6147C73.8653 29.8191 74.1997 29.943 74.5279 30.0917C75.3268 29.5775 75.432 28.8898 75.141 28.0533ZM66.2609 22.6567L65.1648 25.0855C64.8056 24.9554 64.465 24.8872 64.1368 24.8872C63.0717 24.8872 62.1985 25.6679 61.5236 27.2231C61.5483 27.4461 61.9075 27.6568 62.5949 27.855L64.5146 28.4065C65.2081 28.6047 65.5239 29.0013 65.5239 29.3978C65.5239 29.7943 65.4311 30.3829 65.2267 31.2008C65.0471 31.9257 64.8675 32.5143 64.6941 32.9604C64.5084 33.0905 64.2421 33.2454 63.8829 33.4127C61.957 34.3359 59.9135 35.0732 57.7461 35.0732V32.44H58.2291C58.9289 32.44 59.9878 32.3222 61.3997 31.9753C62.8178 31.6283 63.8024 31.2689 64.3597 30.8972C63.3875 30.2219 62.341 30.1475 61.2635 29.7634C60.8238 29.6085 60.3965 29.3916 60.1055 29.0385C60.1055 28.7225 60.2355 28.0719 60.5018 27.0992C60.8548 25.8042 61.3316 24.7262 61.9446 23.8711C62.7621 22.7311 63.7157 22.1673 64.8118 22.1673C65.1462 22.1673 65.623 22.2602 66.2299 22.4523L67.9576 20.6245C68.1929 21.0087 68.3787 21.5663 68.4345 22.3036C68.4964 23.2082 68.5521 24.1499 68.5521 25.0545V27.9046C68.5521 28.7782 68.614 29.3978 68.7317 29.7634C68.9484 30.4511 69.3819 30.7919 70.0569 30.7919H72.3791C71.8961 30.4945 71.3511 29.9307 71.3511 29.3297C71.3511 28.9889 71.5555 28.5738 72.0261 28.1463C72.2181 27.9666 72.6144 27.6568 73.2708 27.4151L73.9644 27.1549L72.8188 26.4796L73.0541 23.7658L73.3513 23.9455L74.1811 24.4783L74.8933 24.974L75.5249 25.4263L76.6953 26.3371C77.6552 27.0868 78.5036 27.8984 79.2281 28.772C79.29 29.8997 79.2157 30.8414 78.7141 31.9009C78.4602 32.4276 78.2001 32.8179 77.9215 33.0657C77.4075 33.0224 77.0669 32.9666 76.8935 32.9294L76.3424 32.8117L76.0079 32.7126C75.3453 32.5205 74.7756 32.3098 74.2864 32.0992L73.4938 32.5763L72.8436 32.9294C72.2119 33.2764 71.6112 33.4437 71.0415 33.4437H69.8711C69.0166 33.4437 68.3725 33.2082 67.9329 32.7498C67.5799 32.378 67.3136 31.7027 67.1402 30.7113C67.0225 30.0484 66.9606 28.9083 66.9606 27.2912C66.9606 26.1698 66.9297 25.3519 66.8615 24.8377C66.7687 24.1128 66.5705 23.3817 66.2732 22.6444" fill="#236E27"/>
<path d="M44.1775 30.2466C44.1775 31.0892 43.8369 32.1859 43.1495 33.5304C42.5055 34.7819 41.8181 35.7547 41.1493 36.399L40.8769 36.3619C39.9666 36.2317 38.5423 35.5626 37.793 34.974C39.0315 34.342 40.0718 33.7224 40.9016 33.1152C41.9729 32.3284 42.6108 31.5725 42.8213 30.86C42.5179 30.0297 41.9234 29.3234 41.0441 28.741L42.3693 26.1511C42.8461 26.5724 43.2672 27.1982 43.6326 28.0285C44.0041 28.8587 44.1837 29.596 44.1837 30.2466" fill="#236E27"/>
<path d="M24.5779 30.2466C24.5779 31.0892 24.2373 32.1859 23.5499 33.5304C22.9059 34.7819 22.2433 35.7361 21.5745 36.3804C20.4413 36.2503 19.0603 35.7794 18.1934 34.974C19.4319 34.342 20.4722 33.7224 21.2958 33.1152C22.3671 32.3284 23.005 31.5725 23.2155 30.86C22.9121 30.0297 22.3176 29.3234 21.4383 28.741L22.7635 26.1511C23.2403 26.5724 23.6614 27.1982 24.0268 28.0285C24.3983 28.8587 24.5841 29.596 24.5841 30.2466" fill="#236E27"/>
<path d="M36.963 29.3791C36.9135 29.6146 36.8206 29.9182 36.6967 30.2899L36.3995 31.1573L36.2385 31.5724L36.1394 31.7707C35.9288 32.192 35.5883 32.57 35.1114 32.9107C34.6346 33.2453 34.1764 33.4126 33.7305 33.4126C33.2846 33.4126 32.8326 33.1958 32.3867 32.762C32.0585 32.4337 31.8356 31.9876 31.7117 31.4361C31.5507 32.0185 31.3154 32.4646 30.9996 32.7806C30.5909 33.2019 30.0335 33.4126 29.3214 33.4126C28.4235 33.4126 27.7051 32.7558 27.1664 31.4361C26.9434 31.9256 26.6524 32.4089 26.2561 32.7806C25.7916 33.2019 25.3024 33.4126 24.776 33.4126H23.9834V30.7608H24.9742C25.5687 30.7608 26.0393 30.4386 26.3985 29.7942C26.6214 29.3853 26.7329 28.9206 26.7329 28.3878H27.5813C27.5813 29.9739 28.1758 30.7608 29.3585 30.7608C29.8106 30.7608 30.2131 30.6307 30.5537 30.3766C30.9748 30.0607 31.1853 29.7013 31.3154 29.1994C31.3897 28.9206 31.4145 28.648 31.4145 28.3878H32.2814C32.2814 29.1685 32.3867 29.7385 32.5972 30.1102C32.845 30.5439 33.2537 30.7608 33.8234 30.7608C34.2073 30.7608 34.4984 30.6864 34.8699 30.5811C35.161 30.5006 35.4272 30.3643 35.6626 30.166C35.6626 30.0359 35.4582 29.6579 35.0495 29.0383L34.4364 28.109L35.9165 26.1697C36.5109 26.7955 37.155 28.425 36.9506 29.3729" fill="#236E27"/>
<path d="M39.8986 20.5935C40.103 21.684 40.134 22.7497 40.1464 23.8649C40.1464 24.342 40.1402 24.8191 40.1216 25.2961C40.0844 26.1883 40.0535 27.0805 39.9977 27.9727C39.9668 28.7224 39.8986 29.4535 39.7996 30.197L39.7191 30.8042L39.459 32.4647L38.4929 33.9269L38.4744 30.3086C38.462 28.71 38.3939 27.3965 38.2762 26.3494C38.1709 25.482 38.0842 24.85 38.0223 24.4535C37.917 23.7534 37.787 23.1276 37.626 22.5762C38.3815 21.9194 39.1432 21.2565 39.8986 20.5997" fill="#236E27"/>
<path d="M56.5757 29.1994C56.5323 29.4535 56.4394 29.819 56.2784 30.2837L55.9812 31.1511L55.8264 31.5663L55.7273 31.7645C55.5167 32.1858 55.1761 32.5638 54.6993 32.9046C54.2225 33.2391 53.7642 33.4126 53.3122 33.4126C52.8601 33.4126 52.4143 33.1958 51.9684 32.762C51.6402 32.4337 51.4173 31.9938 51.2996 31.4361C51.1386 32.0185 50.9033 32.4646 50.5875 32.7806C50.1788 33.2019 49.6214 33.4126 48.9093 33.4126C48.0114 33.4126 47.293 32.7558 46.7543 31.4361C46.5313 31.9256 46.2403 32.4089 45.844 32.7806C45.3857 33.2019 44.8903 33.4126 44.3639 33.4126H43.5713V30.7608H44.5621C45.1566 30.7608 45.6272 30.4386 45.9864 29.7942C46.2093 29.3853 46.3208 28.9144 46.3208 28.3878H47.1692C47.1692 29.9677 47.7637 30.7608 48.9464 30.7608C49.6462 30.7608 50.2097 30.4572 50.6432 29.85C50.8785 29.3357 50.9962 28.8463 50.9962 28.3878H51.8631C51.8631 29.1685 51.9684 29.7385 52.1789 30.1102C52.4266 30.5439 52.8354 30.7608 53.4051 30.7608C53.789 30.7608 54.0801 30.6864 54.4516 30.5811C54.7427 30.5006 55.0028 30.3643 55.2443 30.166C55.2443 30.0359 55.0399 29.6579 54.6312 29.0383L54.0181 28.109L55.5043 26.1697C56.0121 26.7087 56.3156 27.6505 56.5013 28.363C56.5757 28.6418 56.6128 28.9268 56.5695 29.1994" fill="#236E27"/>
<path d="M83.9156 26.9132L82.4913 28.4993L80.8379 27.13L82.2746 25.5315L83.9156 26.9132Z" fill="#236E27"/>
<path d="M104.177 24.8995L102.753 26.4856L101.1 25.1102L102.536 23.5178L104.177 24.8995Z" fill="#236E27"/>
<path d="M91.582 29.41C91.3591 28.9515 91.037 28.524 90.616 28.1274C90.3125 27.892 90.04 27.7743 89.7862 27.7743C89.6561 27.8548 89.4765 27.9849 89.2536 28.1708L89.074 28.4868L88.8573 28.9825C88.913 29.0878 89.105 29.2365 89.4456 29.4348L89.6437 29.4967L89.9967 29.5773L90.3497 29.6392H90.5664L91.0556 29.602L91.3343 29.5401C91.3962 29.5277 91.4767 29.4905 91.5696 29.4224M93.0063 30.4075C93.0063 32.7371 92.034 35.0172 90.0896 37.2477H89.6933L89.4208 37.2105L89.1421 37.1486L88.9625 37.13L88.9006 37.1114L88.8015 37.0928L88.5229 37.0123L88.207 36.9131C87.433 36.6777 86.8137 36.3927 86.3555 36.0643C89.0616 34.9738 90.9256 33.4373 91.9535 31.4484L91.5758 31.5599L91.1671 31.6653L90.7336 31.7272L90.2815 31.7458C89.3093 31.783 88.4176 31.4732 87.6002 30.8164C87.6002 28.9887 88.0832 27.5326 89.0616 26.436C89.3527 26.1076 89.6561 25.8598 89.9657 25.6863C91.0061 25.6863 91.7987 26.2439 92.3499 27.3653C92.7834 28.2328 93.0001 29.2489 93.0001 30.4013" fill="#236E27"/>
<path d="M99.3538 31.2068V31.0085L99.3724 30.8289C99.3724 30.1473 99.1804 29.6207 98.8027 29.2489C98.555 29.0011 98.0906 28.7842 97.4218 28.5984C97.044 28.8338 96.7901 29.2117 96.6725 29.7198C96.8458 29.9552 97.1802 30.2403 97.6756 30.5686C97.9791 30.7669 98.5364 30.9776 99.3538 31.2006M100.809 30.3952L100.456 31.1634L100.023 31.9503C99.7316 32.477 99.4096 32.8673 99.0566 33.1337H98.5612L98.3444 33.0965L98.0472 33.016L97.7128 32.8921C97.3165 32.7496 96.9759 32.5451 96.691 32.2911L95.8798 31.5724C95.4339 32.415 94.9138 32.8363 94.3255 32.8363H92.5234V30.1969H94.6041C94.7094 30.1969 95.019 30.0296 95.3101 29.5277L96.1585 28.0655C96.5424 27.4088 96.8954 26.9131 97.2236 26.5847C98.524 26.5847 99.4591 26.8945 100.023 27.5141C100.549 28.1027 100.809 29.063 100.809 30.389" fill="#236E27"/>
<path d="M104.574 30.544C104.574 31.3866 104.233 32.4771 103.552 33.8216C102.908 35.0731 102.251 36.0149 101.583 36.6593L101.285 36.6407C101.112 36.6283 100.951 36.5973 100.796 36.5416L99.8487 36.207C99.1366 35.9592 98.5916 35.6432 98.2139 35.259C99.4462 34.627 100.48 34.0137 101.31 33.4065C102.375 32.6196 103.013 31.8699 103.224 31.1574C102.92 30.3271 102.332 29.627 101.446 29.0446L102.765 26.4609C103.242 26.8823 103.657 27.508 104.029 28.3321C104.394 29.1623 104.58 29.8934 104.58 30.5378" fill="#236E27"/>
<path d="M106.76 20.6367L106.878 21.3678L106.933 22.0989L107.014 24.1498L106.977 24.8623L106.933 26.2439L106.896 27.0494L106.834 27.9974C106.834 28.3257 106.816 28.7657 106.772 29.3171L106.574 30.8165L106.32 32.4708L105.336 33.9268V30.3208C105.336 27.0742 105.045 24.5029 104.469 22.6132L106.754 20.6429L106.76 20.6367Z" fill="#236E27"/>
<path d="M107.806 19.7631C107.806 19.9861 107.472 20.2278 106.797 20.4942C105.837 20.8659 105.119 20.8597 104.109 20.8597C104.035 21.1323 103.868 21.5103 103.608 21.9812C103.465 22.006 103.038 21.9688 102.988 21.7829C102.988 21.4483 103.044 21.027 103.155 20.519C103.304 19.8808 103.49 19.5586 103.713 19.54C104.344 19.6639 104.896 19.7755 105.54 19.6949C106.078 19.6268 106.623 19.4781 107.1 19.286L107.775 18.9514L107.8 19.7631H107.806Z" fill="#236E27"/>
<path d="M86.8935 29.0694C86.8935 29.8315 86.7882 30.5254 86.5777 31.1574C86.5096 31.4176 86.4043 31.8017 86.2619 32.3036C85.7479 32.948 84.9862 33.5118 83.9768 34.0013C82.7693 34.5775 81.4812 34.8687 80.1127 34.8687H80.0879V32.2478C80.2427 32.2602 80.3975 32.2664 80.5647 32.2664C81.4317 32.2664 82.3544 32.1239 83.3204 31.8327C84.5032 31.4919 85.2834 31.0397 85.6674 30.4696C85.3763 28.9579 84.788 27.7744 83.8963 26.9194L84.9614 24.2986C85.4754 24.9182 85.9151 25.6679 86.2804 26.5477C86.6892 27.508 86.8935 28.3507 86.8935 29.0694Z" fill="#236E27"/>
</g>
<defs>
<clipPath id="clip0_164_4058">
<rect width="126" height="83.0118" fill="white" transform="translate(0 0.494141)"/>
</clipPath>
</defs>
</svg>
