<svg width="99" height="52" viewBox="0 0 99 52" fill="none" xmlns="http://www.w3.org/2000/svg">
<rect width="99" height="52" rx="8" fill="white"/>
<g clip-path="url(#clip0_174_6053)">
<path d="M39.7123 11.9033H59.5676C63.1102 11.9033 66.3275 13.3196 68.6554 15.6004C70.9782 17.8761 72.4191 21.0137 72.4191 24.4641V27.5357C72.4191 30.9861 70.9782 34.1237 68.6554 36.3994C66.3275 38.6802 63.1102 40.0964 59.5676 40.0964H39.7123C36.1696 40.0964 32.9523 38.6802 30.6245 36.3994C28.3017 34.1237 26.7896 30.9861 26.7896 27.5357V24.4641C26.7896 21.0137 28.3017 17.8761 30.6245 15.6004C32.9523 13.3196 36.1696 11.9033 39.7123 11.9033ZM59.5651 8.96655H39.7123C35.3793 8.96655 31.4352 10.7083 28.5711 13.5128C25.7045 16.3225 23.646 20.1975 23.646 24.4641V27.5357C23.646 31.8023 25.7045 35.6773 28.5711 38.4869C31.4326 41.2915 35.3768 43.0332 39.7123 43.0332H59.5676C63.9006 43.0332 67.8447 41.2915 70.7088 38.4869C73.5779 35.6773 75.3569 31.7997 75.3569 27.5357V24.4641C75.3569 20.1975 73.5779 16.3225 70.7088 13.5128C67.8422 10.7083 63.9006 8.96655 59.5651 8.96655Z" fill="#EC008C"/>
<path d="M67.4254 26.8135L67.1992 28.6188C67.1865 28.7129 67.1712 28.7688 67.156 28.7866C67.1306 28.8171 67.0543 28.8451 66.9324 28.8654L62.7214 29.5824C63.8142 30.3859 64.358 31.2225 64.358 32.0895C64.358 33.3761 63.6795 34.2788 62.3249 34.8C61.5549 35.0975 60.668 35.245 59.6642 35.245L49.382 35.2501V35.2424H48.8559C46.1799 35.2424 44.8432 34.3805 44.8432 32.6514C44.8432 31.9115 44.7974 30.9453 44.7136 29.7452C44.6221 28.4764 44.523 27.6399 44.4238 27.2279C44.373 27.0271 44.4315 26.8796 44.5967 26.7906L47.7098 25.4328C47.9207 25.3413 48.0681 25.293 48.1469 25.293C48.2384 25.293 48.2867 25.3438 48.2867 25.4506V31.2835C48.2892 31.8734 48.6755 32.1938 49.4455 32.2421L58.9323 32.237C59.9539 32.237 60.729 32.2014 61.2525 32.1302C61.4838 32.0997 61.5956 32.0336 61.5956 31.9319C61.5956 31.8759 61.5498 31.8098 61.4558 31.7386C61.0619 31.4361 60.1267 30.869 58.64 30.0325L59.1432 28.3721C59.1508 28.3467 59.1737 28.3137 59.2271 28.273L67.2373 26.6813C67.3288 26.6635 67.3873 26.6584 67.4101 26.6686C67.4254 26.6914 67.4279 26.7372 67.4203 26.816M67.6439 25.5981L67.527 26.216L59.3033 27.8661L59.5066 27.1517L67.6439 25.6006V25.5981ZM43.5039 27.0906L42.6729 28.873H41.9638C40.3323 28.873 38.9422 29.1222 37.7961 29.6231C36.4568 30.2079 35.7859 31.0089 35.7859 32.0336C35.7859 33.0506 36.4085 33.7397 37.6487 34.1059C38.3526 34.3144 39.3564 34.4161 40.6627 34.4161H41.6233L42.4696 34.4084C43.3667 34.3983 43.8165 34.5229 43.8165 34.7771C43.8165 35.0212 43.4658 35.2399 42.7694 35.4408C41.7834 35.7204 40.284 35.8603 38.2688 35.8603C36.3119 35.8603 34.7287 35.6137 33.5089 35.1153C32.0679 34.5279 31.3462 33.6634 31.3462 32.5192C31.3462 30.9123 33.3564 29.6994 37.3742 28.8807C35.885 28.7612 35.0133 28.7027 34.7566 28.7027C34.1823 28.7027 33.7096 28.7739 33.3335 28.9163C33.1556 28.9824 32.9244 29.1095 32.6372 29.3002C32.4263 29.4426 32.2204 29.5138 32.0323 29.5138C31.6384 29.5138 31.4402 29.3714 31.4402 29.0841C31.4402 28.6544 31.6562 28.1662 32.0832 27.6195C32.7312 26.7957 33.6563 26.3812 34.8532 26.3787C35.4581 26.3787 36.3653 26.4245 37.5775 26.5109C38.7846 26.5999 39.6919 26.6431 40.2967 26.6431H43.1608C43.4607 26.6431 43.6106 26.6864 43.6106 26.7804C43.6106 26.8389 43.5776 26.9432 43.5039 27.0932M41.9232 31.8531C42.0248 31.9115 42.0223 31.9726 41.9156 32.0387L40.4823 32.9337C40.3806 32.9973 40.2739 32.9973 40.1671 32.9362L38.7059 32.059C38.589 31.9904 38.5991 31.909 38.7338 31.8251L40.0807 30.9835C40.1976 30.9097 40.3171 30.9097 40.4467 30.9835L41.9206 31.8505L41.9232 31.8531Z" fill="#10717C"/>
<path d="M32.7922 18.204L37.1886 18.1531C37.763 18.1607 38.2458 18.3209 38.4237 18.7989C38.5381 19.1117 38.4695 19.5694 38.4237 19.7372C38.2103 19.3456 37.796 19.2108 37.1963 19.1956C35.7274 19.1575 34.1848 19.2541 32.7134 19.2439C31.9205 19.2388 31.2674 19.1905 31.5876 18.1404C31.8976 17.1208 32.0755 17.0038 33.3868 16.5131C33.6206 16.4266 33.9281 16.33 34.1492 16.1418L33.9917 17.0216C33.8824 17.5708 32.35 17.403 32.0755 17.9827L32.0857 18.0183V18.0209V18.0234L32.0958 18.0387L32.1009 18.0438L32.1162 18.059H32.1187V18.0641C32.2127 18.1455 32.416 18.1963 32.7795 18.1989" fill="#236E27"/>
<path d="M55.7505 21.2096C55.6818 21.0799 55.5599 20.9426 55.3845 20.8028L54.9779 20.4773V20.6553C54.9779 20.9808 54.8813 21.1943 54.6856 21.2986L55.1329 21.4613L55.57 21.5986C55.6895 21.502 55.7479 21.3723 55.7479 21.2096M54.4823 20.2764C54.1672 20.2332 53.9436 20.2612 53.7581 20.4849C53.6005 20.6782 53.6666 20.785 53.8445 20.9172C53.9588 21.0011 54.096 21.052 54.2307 21.113C54.5586 20.9019 54.6018 20.6197 54.4823 20.2764ZM50.8381 18.0618L50.3883 19.0585C50.2409 19.0051 50.1011 18.9771 49.9664 18.9771C49.5293 18.9771 49.171 19.2975 48.894 19.9357C48.9041 20.0273 49.0515 20.1137 49.3336 20.1951L50.1214 20.4214C50.406 20.5027 50.5357 20.6655 50.5357 20.8282C50.5357 20.9909 50.4975 21.2325 50.4137 21.5681C50.34 21.8656 50.2663 22.1072 50.1951 22.2902C50.1189 22.3436 50.0096 22.4072 49.8622 22.4758C49.0719 22.8547 48.2332 23.1573 47.3438 23.1573V22.0766H47.542C47.8291 22.0766 48.2637 22.0283 48.8431 21.8859C49.4251 21.7436 49.8292 21.5961 50.0579 21.4435C49.6589 21.1664 49.2294 21.1359 48.7872 20.9782C48.6068 20.9147 48.4314 20.8257 48.312 20.6807C48.312 20.551 48.3654 20.2841 48.4746 19.8849C48.6195 19.3535 48.8152 18.911 49.0668 18.5601C49.4022 18.0923 49.7936 17.8609 50.2434 17.8609C50.3806 17.8609 50.5763 17.899 50.8254 17.9779L51.5344 17.2278C51.631 17.3854 51.7072 17.6143 51.7301 17.9168C51.7555 18.2881 51.7784 18.6746 51.7784 19.0458V20.2154C51.7784 20.5739 51.8038 20.8282 51.8521 20.9782C51.941 21.2605 52.1189 21.4003 52.3959 21.4003H53.3489C53.1507 21.2783 52.927 21.0469 52.927 20.8002C52.927 20.6604 53.0109 20.49 53.204 20.3146C53.2828 20.2408 53.4455 20.1137 53.7149 20.0145L53.9995 19.9078L53.5293 19.6306L53.6259 18.5169L53.7479 18.5907L54.0884 18.8093L54.3807 19.0127L54.6399 19.1984L55.1202 19.5721C55.5141 19.8798 55.8623 20.2129 56.1596 20.5714C56.185 21.0342 56.1545 21.4206 55.9487 21.8554C55.8445 22.0716 55.7377 22.2318 55.6234 22.3335C55.4125 22.3157 55.2727 22.2928 55.2015 22.2775L54.9753 22.2292L54.8381 22.1885C54.5662 22.1097 54.3324 22.0233 54.1316 21.9368L53.8063 22.1326L53.5395 22.2775C53.2803 22.4199 53.0338 22.4886 52.8 22.4886H52.3197C51.969 22.4886 51.7047 22.3919 51.5242 22.2038C51.3794 22.0512 51.2701 21.7741 51.1989 21.3672C51.1507 21.0952 51.1252 20.6273 51.1252 19.9637C51.1252 19.5035 51.1125 19.1678 51.0846 18.9568C51.0465 18.6593 50.9651 18.3593 50.8432 18.0567" fill="#236E27"/>
<path d="M41.7759 21.1766C41.7759 21.5224 41.6361 21.9724 41.354 22.5242C41.0897 23.0378 40.8076 23.437 40.5332 23.7014L40.4213 23.6862C40.0478 23.6328 39.4633 23.3582 39.1558 23.1166C39.664 22.8573 40.091 22.603 40.4315 22.3538C40.8712 22.0309 41.1329 21.7207 41.2193 21.4283C41.0948 21.0876 40.8508 20.7977 40.49 20.5587L41.0338 19.4958C41.2295 19.6688 41.4023 19.9256 41.5522 20.2663C41.7047 20.607 41.7784 20.9096 41.7784 21.1766" fill="#236E27"/>
<path d="M33.7324 21.1766C33.7324 21.5224 33.5926 21.9724 33.3106 22.5242C33.0463 23.0378 32.7743 23.4294 32.4999 23.6938C32.0348 23.6404 31.4681 23.4472 31.1123 23.1166C31.6206 22.8573 32.0475 22.603 32.3855 22.3538C32.8252 22.0309 33.0869 21.7207 33.1733 21.4283C33.0488 21.0876 32.8048 20.7977 32.444 20.5587L32.9878 19.4958C33.1835 19.6688 33.3563 19.9256 33.5062 20.2663C33.6587 20.607 33.735 20.9096 33.735 21.1766" fill="#236E27"/>
<path d="M38.8154 20.8205C38.7951 20.9171 38.7569 21.0417 38.7061 21.1943L38.5841 21.5503L38.5181 21.7206L38.4774 21.802C38.391 21.9749 38.2512 22.13 38.0555 22.2698C37.8598 22.4071 37.6718 22.4758 37.4888 22.4758C37.3058 22.4758 37.1203 22.3868 36.9373 22.2088C36.8027 22.0741 36.7112 21.891 36.6603 21.6647C36.5943 21.9037 36.4977 22.0868 36.3681 22.2164C36.2004 22.3893 35.9716 22.4758 35.6794 22.4758C35.3109 22.4758 35.0161 22.2063 34.795 21.6647C34.7035 21.8656 34.5841 22.0639 34.4214 22.2164C34.2308 22.3893 34.0301 22.4758 33.8141 22.4758H33.4888V21.3875H33.8954C34.1393 21.3875 34.3325 21.2553 34.4799 20.9909C34.5714 20.8231 34.6171 20.6324 34.6171 20.4137H34.9653C34.9653 21.0646 35.2092 21.3875 35.6946 21.3875C35.8802 21.3875 36.0453 21.3341 36.1851 21.2299C36.3579 21.1002 36.4443 20.9527 36.4977 20.7468C36.5282 20.6324 36.5384 20.5205 36.5384 20.4137H36.8941C36.8941 20.7341 36.9373 20.968 37.0238 21.1206C37.1254 21.2985 37.2931 21.3875 37.5269 21.3875C37.6845 21.3875 37.8039 21.357 37.9564 21.3138C38.0759 21.2807 38.1851 21.2248 38.2817 21.1434C38.2817 21.09 38.1978 20.9349 38.0301 20.6807L37.7785 20.2993L38.3859 19.5034C38.6299 19.7602 38.8942 20.4289 38.8103 20.818" fill="#236E27"/>
<path d="M40.0196 17.2151C40.1034 17.6626 40.1162 18.0999 40.1212 18.5576C40.1212 18.7534 40.1187 18.9492 40.1111 19.145C40.0958 19.5111 40.0831 19.8773 40.0602 20.2434C40.0475 20.5511 40.0196 20.8511 39.9789 21.1562L39.9459 21.4054L39.8391 22.0868L39.4427 22.6869L39.4351 21.202C39.43 20.546 39.402 20.0069 39.3538 19.5772C39.3106 19.2213 39.275 18.9619 39.2496 18.7992C39.2064 18.5118 39.153 18.255 39.0869 18.0287C39.397 17.7592 39.7095 17.4872 40.0196 17.2176" fill="#236E27"/>
<path d="M46.8636 20.7468C46.8458 20.851 46.8077 21.0011 46.7417 21.1918L46.6197 21.5477L46.5561 21.7181L46.5155 21.7994C46.4291 21.9723 46.2893 22.1275 46.0936 22.2673C45.8979 22.4046 45.7099 22.4758 45.5244 22.4758C45.3388 22.4758 45.1559 22.3868 44.9729 22.2088C44.8382 22.0741 44.7467 21.8935 44.6984 21.6647C44.6324 21.9037 44.5358 22.0868 44.4062 22.2164C44.2384 22.3893 44.0097 22.4758 43.7175 22.4758C43.349 22.4758 43.0542 22.2063 42.8331 21.6647C42.7416 21.8656 42.6222 22.0639 42.4595 22.2164C42.2715 22.3893 42.0682 22.4758 41.8521 22.4758H41.5269V21.3875H41.9335C42.1774 21.3875 42.3706 21.2553 42.518 20.9909C42.6095 20.8231 42.6552 20.6298 42.6552 20.4137H43.0034C43.0034 21.0621 43.2473 21.3875 43.7327 21.3875C44.0199 21.3875 44.2512 21.2629 44.429 21.0138C44.5256 20.8027 44.5739 20.6019 44.5739 20.4137H44.9297C44.9297 20.7341 44.9729 20.968 45.0593 21.1206C45.1609 21.2985 45.3287 21.3875 45.5625 21.3875C45.72 21.3875 45.8395 21.357 45.992 21.3138C46.1114 21.2807 46.2181 21.2248 46.3173 21.1434C46.3173 21.09 46.2334 20.9349 46.0657 20.6807L45.8141 20.2993L46.424 19.5034C46.6324 19.7246 46.7569 20.1111 46.8331 20.4035C46.8636 20.5179 46.8789 20.6349 46.8611 20.7468" fill="#236E27"/>
<path d="M58.0834 19.8085L57.4988 20.4594L56.8203 19.8975L57.4099 19.2415L58.0834 19.8085Z" fill="#236E27"/>
<path d="M66.3988 18.9821L65.8143 19.633L65.1357 19.0685L65.7253 18.415L66.3988 18.9821Z" fill="#236E27"/>
<path d="M61.2298 20.8331C61.1384 20.6449 61.0062 20.4695 60.8334 20.3067C60.7089 20.2101 60.5971 20.1618 60.4929 20.1618C60.4395 20.1949 60.3658 20.2483 60.2743 20.3245L60.2006 20.4542L60.1117 20.6576C60.1345 20.7009 60.2133 20.7619 60.3531 20.8432L60.4344 20.8687L60.5793 20.9017L60.7241 20.9272H60.8131L61.0138 20.9119L61.1282 20.8865C61.1536 20.8814 61.1866 20.8661 61.2248 20.8382M61.8143 21.2424C61.8143 22.1985 61.4154 23.1342 60.6174 24.0496H60.4547L60.3429 24.0343L60.2286 24.0089L60.1549 24.0012L60.1294 23.9936L60.0888 23.986L59.9744 23.9529L59.8448 23.9122C59.5272 23.8156 59.273 23.6987 59.085 23.5639C60.1955 23.1164 60.9605 22.4858 61.3823 21.6696L61.2273 21.7154L61.0596 21.7586L60.8817 21.784L60.6962 21.7917C60.2972 21.8069 59.9312 21.6798 59.5958 21.4103C59.5958 20.6602 59.794 20.0626 60.1955 19.6126C60.315 19.4778 60.4395 19.3761 60.5666 19.3049C60.9935 19.3049 61.3188 19.5338 61.545 19.994C61.7229 20.35 61.8118 20.767 61.8118 21.2399" fill="#236E27"/>
<path d="M64.4188 21.5707V21.4893L64.4264 21.4156C64.4264 21.1359 64.3476 20.9197 64.1926 20.7672C64.091 20.6655 63.9004 20.5765 63.6259 20.5002C63.4709 20.5968 63.3667 20.7519 63.3184 20.9604C63.3896 21.057 63.5268 21.174 63.7301 21.3088C63.8546 21.3901 64.0833 21.4766 64.4188 21.5681M65.016 21.2376L64.8712 21.5529L64.6933 21.8758C64.5738 22.0919 64.4417 22.2521 64.2968 22.3614H64.0935L64.0046 22.3462L63.8826 22.3131L63.7454 22.2623C63.5827 22.2038 63.4429 22.1199 63.326 22.0156L62.9931 21.7207C62.8101 22.0665 62.5967 22.2394 62.3552 22.2394H61.6157V21.1562H62.4696C62.5128 21.1562 62.6399 21.0876 62.7593 20.8816L63.1075 20.2815C63.265 20.012 63.4099 19.8086 63.5446 19.6738C64.0783 19.6738 64.462 19.801 64.6933 20.0552C64.9093 20.2968 65.016 20.6909 65.016 21.235" fill="#236E27"/>
<path d="M66.5611 21.2984C66.5611 21.6442 66.4213 22.0917 66.1418 22.6435C65.8775 23.1571 65.6081 23.5436 65.3336 23.808L65.2117 23.8004C65.1405 23.7953 65.0744 23.7826 65.0109 23.7597L64.6221 23.6224C64.3298 23.5207 64.1062 23.391 63.9512 23.2334C64.4569 22.974 64.8813 22.7223 65.2218 22.4731C65.6589 22.1502 65.9207 21.8426 66.0071 21.5501C65.8826 21.2094 65.6412 20.9221 65.2777 20.6831L65.819 19.6228C66.0147 19.7957 66.185 20.0525 66.3375 20.3907C66.4874 20.7314 66.5637 21.0314 66.5637 21.2959" fill="#236E27"/>
<path d="M67.4584 17.2327L67.5066 17.5327L67.5295 17.8327L67.5626 18.6744L67.5473 18.9668L67.5295 19.5338L67.5143 19.8643L67.4889 20.2534C67.4889 20.3881 67.4812 20.5686 67.4634 20.7949L67.3821 21.4103L67.2779 22.0892L66.8739 22.6867V21.2069C66.8739 19.8745 66.7544 18.8193 66.5181 18.0438L67.4558 17.2352L67.4584 17.2327Z" fill="#236E27"/>
<path d="M67.8878 16.8743C67.8878 16.9659 67.7506 17.065 67.4736 17.1744C67.0797 17.3269 66.7849 17.3244 66.3706 17.3244C66.3401 17.4363 66.2715 17.5914 66.1648 17.7846C66.1063 17.7948 65.931 17.7795 65.9106 17.7033C65.9106 17.566 65.9335 17.3931 65.9793 17.1846C66.0403 16.9227 66.1165 16.7904 66.208 16.7828C66.4672 16.8337 66.6934 16.8794 66.9577 16.8464C67.1788 16.8184 67.4024 16.7574 67.5981 16.6786L67.8751 16.5413L67.8853 16.8743H67.8878Z" fill="#236E27"/>
<path d="M59.3061 20.6935C59.3061 21.0062 59.2629 21.291 59.1765 21.5503C59.1485 21.6571 59.1053 21.8148 59.0469 22.0207C58.836 22.2852 58.5234 22.5165 58.1091 22.7174C57.6136 22.9539 57.085 23.0734 56.5233 23.0734H56.5132V21.9978C56.5767 22.0029 56.6403 22.0055 56.7089 22.0055C57.0647 22.0055 57.4433 21.947 57.8398 21.8275C58.3251 21.6876 58.6454 21.502 58.8029 21.2681C58.6835 20.6477 58.442 20.162 58.0761 19.8111L58.5132 18.7356C58.7241 18.9899 58.9046 19.2975 59.0545 19.6586C59.2222 20.0527 59.3061 20.3985 59.3061 20.6935Z" fill="#236E27"/>
</g>
<defs>
<clipPath id="clip0_174_6053">
<rect width="51.7083" height="34.0667" fill="white" transform="translate(23.646 8.96655)"/>
</clipPath>
</defs>
</svg>
