<svg width="100" height="100" viewBox="0 0 100 100" fill="none" xmlns="http://www.w3.org/2000/svg">
<path d="M19.2395 7.72772L19.3047 7.60844C19.3698 7.5488 19.4349 7.5488 19.4349 7.48916L19.5 7.36989L19.6303 7.25061L19.7605 7.19097L19.8907 7.13133L20.021 7.07169L20.1512 7.01205L20.2163 6.89278L20.3466 6.83314L20.4768 6.7735L20.6071 6.71386L20.7373 6.65422L20.8675 6.59458L20.9978 6.53494L21.128 6.4753C21.649 6.35603 22.1048 6.29639 22.5607 6.29639C23.3421 6.29639 24.1235 6.35603 24.905 6.4753C25.8167 6.65422 26.6632 6.89278 27.5098 7.19097C28.4866 7.5488 29.4634 7.90664 30.4402 8.38375C31.5472 8.9205 32.5892 9.45725 33.6311 10.0536C35.9103 11.4253 38.1244 12.9163 40.2082 14.5266C42.3572 16.1964 44.3759 17.926 46.2644 19.7748C48.218 21.6832 50.1065 23.7109 51.7996 25.7983C63.0654 39.5152 62.0235 46.2544 52.5811 58.7786C50.9531 60.9256 49.1948 63.0726 47.3063 65.0407C45.483 66.9491 43.5294 68.7979 41.5106 70.5274C39.4919 72.1973 37.3429 73.8076 35.1289 75.2389C34.1521 75.8949 33.1101 76.4913 32.0031 77.0281C31.0914 77.5052 30.1146 77.9227 29.1378 78.3401C28.2912 78.698 27.4447 78.9365 26.533 79.1154C26.012 79.2347 25.5562 79.2944 25.0352 79.354C24.5143 79.4136 23.9933 79.4136 23.5375 79.354C20.9978 79.1154 19.6954 76.8492 18.4581 75.06C17.6767 73.9269 17.0254 72.7341 16.4394 71.5413C15.8533 70.2889 15.2672 68.9768 14.7462 67.5455C14.2253 66.1142 13.8346 64.7425 13.3787 63.2515C11.0995 55.081 9.79711 46.3737 10.3832 37.8453C10.5134 36.1158 10.6437 34.3863 10.839 32.6568C11.0344 30.9272 11.2298 29.317 11.4902 27.6471C11.7507 25.9772 12.0763 24.4266 12.4019 22.9356C12.7275 21.4447 13.1834 19.9537 13.6392 18.5224C14.095 17.091 14.616 15.779 15.137 14.4669C15.6579 13.2145 16.3091 12.0217 17.0254 10.8289C17.6767 9.75544 18.393 8.68194 19.2395 7.72772ZM51.2787 38.7996C51.0182 37.5472 50.7577 36.2947 50.367 34.9827C49.9111 33.3724 49.3251 31.7622 48.6087 30.2116C48.0226 28.7802 47.2412 27.4085 46.4598 26.0965C45.6783 24.9037 44.8318 23.7706 43.855 22.6374C36.4964 14.6458 30.1797 25.5001 24.8399 40.8869C20.7373 56.5719 20.0861 68.8576 30.896 65.3985C32.3287 64.9214 33.6962 64.3846 35.0637 63.669C36.4964 62.8937 37.929 62.0587 39.2314 61.1045C40.7292 60.0906 42.0967 58.9575 43.4642 57.8244C44.5062 56.9298 45.483 55.9756 46.3946 55.0213C47.3063 54.0671 48.1529 53.0533 48.9994 52.0394C52.4508 47.6261 52.2555 43.9285 51.2787 38.7996Z" fill="#52C0CB"/>
<path d="M25.879 50.8473C25.7487 50.4895 25.6836 50.1317 25.6836 49.7142C25.6836 49.2967 25.7487 48.9389 25.879 48.5214C26.0092 48.0443 26.2046 47.6268 26.465 47.2094C26.8558 46.4937 27.3116 45.8377 27.8977 45.2413C28.4838 44.5256 29.2001 43.8099 29.9164 43.2136C30.6978 42.4979 31.5444 41.8419 32.4561 41.1262C33.4329 40.4105 34.4748 39.6949 35.5819 38.9792C40.2705 36.1165 45.3499 33.731 50.6246 31.8822C53.2945 30.9876 55.9645 30.1526 58.7646 29.5563C76.4773 25.4412 81.6869 29.3177 87.3524 43.2732C88.3292 45.7184 89.1758 48.2232 89.8921 50.7281C91.2596 55.7377 92.041 60.9263 92.1062 66.1149C92.1062 67.3673 92.1062 68.5601 91.9759 69.6932C91.8457 70.8264 91.7154 71.8402 91.5201 72.7944C91.3247 73.689 91.1294 74.5836 90.8038 75.4782C90.5433 76.2535 90.2177 76.9692 89.827 77.6848C89.5665 78.1023 89.306 78.4601 88.9804 78.818C88.8502 78.9969 88.6548 79.1162 88.5246 79.2951C88.3943 79.4143 88.199 79.5336 88.0036 79.6529L87.7431 79.8318C87.678 79.8915 87.5477 79.9511 87.4826 79.9511C87.2873 80.0107 87.0919 80.13 86.8965 80.13C84.2917 80.8457 81.6218 81.2035 78.9519 81.2035C76.0215 81.2035 73.026 80.9053 70.1607 80.3686C66.9698 79.7722 63.9091 78.9969 60.8485 78.0427L59.6763 77.6848L58.5042 77.2673L57.332 76.8499L56.1598 76.4324C55.7691 76.3131 55.3784 76.1342 54.9877 75.9553L53.7504 75.4782C46.9779 72.8541 40.6612 68.3215 35.3214 63.61C34.2143 62.5962 33.1724 61.642 32.1956 60.6281C31.2188 59.6142 30.3722 58.6004 29.5257 57.5269C28.7442 56.513 28.0279 55.3799 27.4418 54.3064C26.7906 53.1732 26.2697 52.0401 25.879 50.8473ZM69.5095 35.7587C68.2722 35.4009 67.0349 35.1623 65.7976 34.9238C64.1045 34.6256 62.4765 34.4466 60.7834 34.387C59.2205 34.3274 57.6576 34.387 56.0947 34.5659C54.6621 34.7448 53.1643 34.9834 51.7968 35.4009C41.052 38.4424 46.9128 48.8196 57.2018 60.3299C68.4024 70.886 78.5612 76.7902 81.3613 65.6378C81.7521 64.1468 82.0125 62.6558 82.1428 61.1649C82.273 59.5546 82.3381 57.9444 82.2079 56.3341C82.1428 54.6046 81.9474 52.8751 81.6218 51.1455C81.4265 49.8335 81.1009 48.5214 80.7753 47.3286C80.4497 46.1359 80.0589 44.8834 79.6031 43.6907C77.6495 38.5021 74.3935 37.0708 69.5095 35.7587Z" fill="#C5C636"/>
<path d="M51.6673 41.3045C51.5371 40.5291 51.4069 39.6942 51.2766 38.8593C51.0161 37.6068 50.6905 36.3544 50.3649 35.0424C49.9091 33.4321 49.323 31.8219 48.6067 30.2116C48.0206 28.7803 47.2392 27.4086 46.4577 26.0965C45.8065 25.023 45.0251 24.0092 44.2437 23.055L46.0019 19.417L46.3275 19.7748C48.2811 21.6833 50.1696 23.711 51.8627 25.7983C57.7886 33.1339 60.3283 38.5014 59.9376 43.7496C58.2445 43.2129 56.4862 42.7954 54.728 42.378L54.0768 42.0798L53.7512 41.9605C53.2302 41.7816 52.6441 41.6026 52.0581 41.543C51.9278 41.4237 51.7976 41.3641 51.6673 41.3045Z" fill="#52C0CB"/>
<path d="M71.9824 26.4543C64.0377 26.5139 56.1582 28.0049 48.8647 30.9272C48.7996 30.6887 48.6694 30.4501 48.6043 30.2712C48.0833 29.138 47.5623 28.0049 46.9111 26.9314C54.8558 23.8898 63.3865 22.2796 71.9824 22.041V26.4543Z" fill="#C5C636"/>
<path d="M20.543 82.3369H31.418V92.2966H20.543V82.3369Z" fill="#52C0CB"/>
</svg>
