<svg width="99" height="52" viewBox="0 0 99 52" fill="none" xmlns="http://www.w3.org/2000/svg">
<rect width="99" height="52" rx="8" fill="white"/>
<path d="M37.1962 9.09109L37.2223 9.04338C37.2483 9.01952 37.2743 9.01952 37.2743 8.99567L37.3004 8.94795L37.3525 8.90024L37.4046 8.87639L37.4567 8.85253L37.5088 8.82868L37.5609 8.80482L37.5869 8.75711L37.639 8.73325L37.6911 8.7094L37.7432 8.68554L37.7953 8.66169L37.8474 8.63783L37.8995 8.61398L37.9516 8.59012C38.16 8.54241 38.3423 8.51855 38.5247 8.51855C38.8372 8.51855 39.1498 8.54241 39.4624 8.59012C39.8271 8.66169 40.1657 8.75711 40.5043 8.87639C40.895 9.01952 41.2858 9.16265 41.6765 9.3535C42.1193 9.5682 42.5361 9.7829 42.9528 10.0215C43.8645 10.5701 44.7501 11.1665 45.5837 11.8106C46.4433 12.4786 47.2508 13.1704 48.0062 13.9099C48.7876 14.6733 49.543 15.4844 50.2202 16.3193C54.7266 21.8061 54.3098 24.5018 50.5328 29.5114C49.8816 30.3702 49.1783 31.229 48.4229 32.0163C47.6936 32.7796 46.9121 33.5192 46.1046 34.211C45.2972 34.8789 44.4376 35.523 43.5519 36.0956C43.1612 36.358 42.7444 36.5965 42.3016 36.8112C41.937 37.0021 41.5462 37.1691 41.1555 37.3361C40.8169 37.4792 40.4783 37.5746 40.1136 37.6462C39.9052 37.6939 39.7229 37.7177 39.5145 37.7416C39.3061 37.7655 39.0977 37.7655 38.9154 37.7416C37.8995 37.6462 37.3785 36.7397 36.8836 36.024C36.5711 35.5707 36.3106 35.0936 36.0761 34.6165C35.8417 34.1156 35.6073 33.5907 35.3989 33.0182C35.1905 32.4457 35.0342 31.897 34.8519 31.3006C33.9402 28.0324 33.4192 24.5495 33.6537 21.1381C33.7058 20.4463 33.7579 19.7545 33.836 19.0627C33.9141 18.3709 33.9923 17.7268 34.0965 17.0588C34.2007 16.3909 34.3309 15.7706 34.4612 15.1743C34.5914 14.5779 34.7737 13.9815 34.9561 13.4089C35.1384 12.8364 35.3468 12.3116 35.5552 11.7868C35.7636 11.2858 36.024 10.8087 36.3106 10.3316C36.5711 9.90218 36.8576 9.47278 37.1962 9.09109ZM50.0119 21.5198C49.9077 21.0189 49.8035 20.5179 49.6472 19.9931C49.4648 19.349 49.2304 18.7049 48.9439 18.0846C48.7094 17.5121 48.3969 16.9634 48.0843 16.4386C47.7717 15.9615 47.4331 15.5082 47.0424 15.055C44.0989 11.8583 41.5723 16.2 39.4363 22.3548C37.7953 28.6288 37.5348 33.543 41.8588 32.1594C42.4319 31.9686 42.9789 31.7539 43.5259 31.4676C44.0989 31.1575 44.672 30.8235 45.193 30.4418C45.7921 30.0363 46.3391 29.583 46.8861 29.1297C47.3029 28.7719 47.6936 28.3902 48.0582 28.0085C48.4229 27.6268 48.7615 27.2213 49.1002 26.8158C50.4807 25.0504 50.4026 23.5714 50.0119 21.5198Z" fill="#52C0CB"/>
<path d="M39.8521 26.339C39.8 26.1958 39.7739 26.0527 39.7739 25.8857C39.7739 25.7187 39.8 25.5756 39.8521 25.4086C39.9042 25.2178 39.9823 25.0508 40.0865 24.8838C40.2428 24.5975 40.4251 24.3351 40.6596 24.0966C40.894 23.8103 41.1805 23.524 41.4671 23.2855C41.7796 22.9992 42.1183 22.7368 42.4829 22.4505C42.8736 22.1643 43.2904 21.878 43.7332 21.5917C45.6087 20.4467 47.6404 19.4924 49.7503 18.7529C50.8183 18.3951 51.8863 18.0611 53.0063 17.8226C60.0914 16.1765 62.1753 17.7271 64.4414 23.3093C64.8322 24.2874 65.1708 25.2893 65.4573 26.2913C66.0043 28.2951 66.3169 30.3706 66.343 32.446C66.343 32.947 66.343 33.4241 66.2909 33.8773C66.2388 34.3306 66.1867 34.7361 66.1085 35.1178C66.0304 35.4757 65.9522 35.8335 65.822 36.1913C65.7178 36.5014 65.5876 36.7877 65.4313 37.074C65.3271 37.241 65.2229 37.3841 65.0926 37.5272C65.0406 37.5988 64.9624 37.6465 64.9103 37.7181C64.8582 37.7658 64.7801 37.8135 64.7019 37.8612L64.5977 37.9328C64.5717 37.9566 64.5196 37.9805 64.4935 37.9805C64.4154 38.0043 64.3373 38.0521 64.2591 38.0521C63.2172 38.3383 62.1492 38.4815 61.0812 38.4815C59.9091 38.4815 58.7109 38.3622 57.5648 38.1475C56.2884 37.9089 55.0641 37.5988 53.8399 37.2171L53.371 37.074L52.9022 36.907L52.4333 36.74L51.9644 36.573C51.8081 36.5253 51.6518 36.4537 51.4956 36.3822L51.0006 36.1913C48.2916 35.1417 45.765 33.3287 43.629 31.4441C43.1862 31.0385 42.7695 30.6568 42.3787 30.2513C41.988 29.8457 41.6494 29.4402 41.3108 29.0108C40.9982 28.6053 40.7117 28.152 40.4772 27.7226C40.2167 27.2693 40.0084 26.8161 39.8521 26.339ZM57.3043 20.3035C56.8094 20.1604 56.3144 20.065 55.8195 19.9696C55.1423 19.8503 54.4911 19.7787 53.8138 19.7549C53.1887 19.731 52.5635 19.7549 51.9384 19.8264C51.3653 19.898 50.7662 19.9934 50.2192 20.1604C45.9213 21.377 48.2656 25.5279 52.3812 30.132C56.8615 34.3544 60.925 36.7161 62.045 32.2552C62.2013 31.6588 62.3055 31.0624 62.3576 30.466C62.4097 29.8219 62.4357 29.1778 62.3836 28.5337C62.3576 27.8419 62.2795 27.1501 62.1492 26.4583C62.0711 25.9334 61.9408 25.4086 61.8106 24.9315C61.6804 24.4544 61.5241 23.9534 61.3417 23.4763C60.5603 21.4009 59.2579 20.8284 57.3043 20.3035Z" fill="#C5C636"/>
<path d="M50.1672 22.5218C50.1151 22.2117 50.063 21.8777 50.0109 21.5438C49.9068 21.0428 49.7765 20.5418 49.6463 20.017C49.4639 19.3729 49.2295 18.7288 48.943 18.0847C48.7085 17.5122 48.396 16.9635 48.0834 16.4387C47.8229 16.0093 47.5103 15.6037 47.1978 15.222L47.9011 13.7668L48.0313 13.91C48.8127 14.6734 49.5681 15.4844 50.2454 16.3194C52.6158 19.2536 53.6316 21.4006 53.4753 23.4999C52.7981 23.2852 52.0948 23.1182 51.3915 22.9512L51.131 22.832L51.0008 22.7842C50.7924 22.7127 50.558 22.6411 50.3235 22.6173C50.2714 22.5695 50.2193 22.5457 50.1672 22.5218Z" fill="#52C0CB"/>
<path d="M58.2932 16.5817C55.1153 16.6056 51.9635 17.202 49.0461 18.3709C49.02 18.2755 48.9679 18.18 48.9419 18.1085C48.7335 17.6552 48.5251 17.202 48.2646 16.7726C51.4425 15.5559 54.8548 14.9118 58.2932 14.8164V16.5817Z" fill="#C5C636"/>
<path d="M37.7173 38.9348H42.0673V42.9187H37.7173V38.9348Z" fill="#52C0CB"/>
</svg>
