<svg width="53" height="36" viewBox="0 0 53 36" fill="none" xmlns="http://www.w3.org/2000/svg">
<g clip-path="url(#clip0_174_6054)">
<path d="M16.7123 3.90333H36.5676C40.1102 3.90333 43.3275 5.3196 45.6554 7.60037C47.9782 9.87606 49.4191 13.0137 49.4191 16.4641V19.5357C49.4191 22.9861 47.9782 26.1237 45.6554 28.3994C43.3275 30.6802 40.1102 32.0964 36.5676 32.0964H16.7123C13.1696 32.0964 9.95233 30.6802 7.62447 28.3994C5.3017 26.1237 3.78961 22.9861 3.78961 19.5357V16.4641C3.78961 13.0137 5.3017 9.87606 7.62447 7.60037C9.95233 5.3196 13.1696 3.90333 16.7123 3.90333ZM36.5651 0.966553H16.7123C12.3793 0.966553 8.43516 2.70828 5.57108 5.51284C2.70447 8.32249 0.645996 12.1975 0.645996 16.4641V19.5357C0.645996 23.8023 2.70447 27.6773 5.57108 30.4869C8.43262 33.2915 12.3768 35.0332 16.7123 35.0332H36.5676C40.9006 35.0332 44.8447 33.2915 47.7088 30.4869C50.5779 27.6773 52.3569 23.7997 52.3569 19.5357V16.4641C52.3569 12.1975 50.5779 8.32249 47.7088 5.51284C44.8422 2.70828 40.9006 0.966553 36.5651 0.966553Z" fill="#EC008C"/>
<path d="M44.4254 18.8135L44.1992 20.6188C44.1865 20.7129 44.1712 20.7688 44.156 20.7866C44.1306 20.8171 44.0543 20.8451 43.9324 20.8654L39.7214 21.5824C40.8142 22.3859 41.358 23.2225 41.358 24.0895C41.358 25.3761 40.6795 26.2788 39.3249 26.8C38.5549 27.0975 37.668 27.245 36.6642 27.245L26.382 27.2501V27.2424H25.8559C23.1799 27.2424 21.8432 26.3805 21.8432 24.6514C21.8432 23.9115 21.7974 22.9453 21.7136 21.7452C21.6221 20.4764 21.523 19.6399 21.4238 19.2279C21.373 19.0271 21.4315 18.8796 21.5967 18.7906L24.7098 17.4328C24.9207 17.3413 25.0681 17.293 25.1469 17.293C25.2384 17.293 25.2867 17.3438 25.2867 17.4506V23.2835C25.2892 23.8734 25.6755 24.1938 26.4455 24.2421L35.9323 24.237C36.9539 24.237 37.729 24.2014 38.2525 24.1302C38.4838 24.0997 38.5956 24.0336 38.5956 23.9319C38.5956 23.8759 38.5498 23.8098 38.4558 23.7386C38.0619 23.4361 37.1267 22.869 35.64 22.0325L36.1432 20.3721C36.1508 20.3467 36.1737 20.3137 36.2271 20.273L44.2373 18.6813C44.3288 18.6635 44.3873 18.6584 44.4101 18.6686C44.4254 18.6914 44.4279 18.7372 44.4203 18.816M44.6439 17.5981L44.527 18.216L36.3033 19.8661L36.5066 19.1517L44.6439 17.6006V17.5981ZM20.5039 19.0906L19.6729 20.873H18.9638C17.3323 20.873 15.9422 21.1222 14.7961 21.6231C13.4568 22.2079 12.7859 23.0089 12.7859 24.0336C12.7859 25.0506 13.4085 25.7397 14.6487 26.1059C15.3526 26.3144 16.3564 26.4161 17.6627 26.4161H18.6233L19.4696 26.4084C20.3667 26.3983 20.8165 26.5229 20.8165 26.7771C20.8165 27.0212 20.4658 27.2399 19.7694 27.4408C18.7834 27.7204 17.284 27.8603 15.2688 27.8603C13.3119 27.8603 11.7287 27.6137 10.5089 27.1153C9.06793 26.5279 8.34619 25.6634 8.34619 24.5192C8.34619 22.9123 10.3564 21.6994 14.3742 20.8807C12.885 20.7612 12.0133 20.7027 11.7566 20.7027C11.1823 20.7027 10.7096 20.7739 10.3335 20.9163C10.1556 20.9824 9.92435 21.1095 9.63718 21.3002C9.42625 21.4426 9.22041 21.5138 9.03235 21.5138C8.63844 21.5138 8.44022 21.3714 8.44022 21.0841C8.44022 20.6544 8.65623 20.1662 9.08318 19.6195C9.73121 18.7957 10.6563 18.3812 11.8532 18.3787C12.4581 18.3787 13.3653 18.4245 14.5775 18.5109C15.7846 18.5999 16.6919 18.6431 17.2967 18.6431H20.1608C20.4607 18.6431 20.6106 18.6864 20.6106 18.7804C20.6106 18.8389 20.5776 18.9432 20.5039 19.0932M18.9232 23.8531C19.0248 23.9115 19.0223 23.9726 18.9156 24.0387L17.4823 24.9337C17.3806 24.9973 17.2739 24.9973 17.1671 24.9362L15.7059 24.059C15.589 23.9904 15.5991 23.909 15.7338 23.8251L17.0807 22.9835C17.1976 22.9097 17.3171 22.9097 17.4467 22.9835L18.9206 23.8505L18.9232 23.8531Z" fill="#10717C"/>
<path d="M9.79216 10.204L14.1886 10.1531C14.763 10.1607 15.2458 10.3209 15.4237 10.7989C15.5381 11.1117 15.4695 11.5694 15.4237 11.7372C15.2103 11.3456 14.796 11.2108 14.1963 11.1956C12.7274 11.1575 11.1848 11.2541 9.71338 11.2439C8.92048 11.2388 8.26736 11.1905 8.58757 10.1404C8.89761 9.12077 9.0755 9.00381 10.3868 8.51308C10.6206 8.42662 10.9281 8.33 11.1492 8.14185L10.9917 9.02161C10.8824 9.57083 9.34997 9.40301 9.0755 9.98274L9.08567 10.0183V10.0209V10.0234L9.09583 10.0387L9.10092 10.0438L9.11617 10.059H9.11871V10.0641C9.21274 10.1455 9.41604 10.1963 9.77945 10.1989" fill="#236E27"/>
<path d="M32.7505 13.2096C32.6818 13.0799 32.5599 12.9426 32.3845 12.8028L31.9779 12.4773V12.6553C31.9779 12.9808 31.8813 13.1943 31.6856 13.2986L32.1329 13.4613L32.57 13.5986C32.6895 13.502 32.7479 13.3723 32.7479 13.2096M31.4823 12.2764C31.1672 12.2332 30.9436 12.2612 30.7581 12.4849C30.6005 12.6782 30.6666 12.785 30.8445 12.9172C30.9588 13.0011 31.096 13.052 31.2307 13.113C31.5586 12.9019 31.6018 12.6197 31.4823 12.2764ZM27.8381 10.0618L27.3883 11.0585C27.2409 11.0051 27.1011 10.9771 26.9664 10.9771C26.5293 10.9771 26.171 11.2975 25.894 11.9357C25.9041 12.0273 26.0515 12.1137 26.3336 12.1951L27.1214 12.4214C27.406 12.5027 27.5357 12.6655 27.5357 12.8282C27.5357 12.9909 27.4975 13.2325 27.4137 13.5681C27.34 13.8656 27.2663 14.1072 27.1951 14.2902C27.1189 14.3436 27.0096 14.4072 26.8622 14.4758C26.0719 14.8547 25.2332 15.1573 24.3438 15.1573V14.0766H24.542C24.8291 14.0766 25.2637 14.0283 25.8431 13.8859C26.4251 13.7436 26.8292 13.5961 27.0579 13.4435C26.6589 13.1664 26.2294 13.1359 25.7872 12.9782C25.6068 12.9147 25.4314 12.8257 25.312 12.6807C25.312 12.551 25.3654 12.2841 25.4746 11.8849C25.6195 11.3535 25.8152 10.911 26.0668 10.5601C26.4022 10.0923 26.7936 9.86091 27.2434 9.86091C27.3806 9.86091 27.5763 9.89905 27.8254 9.97787L28.5344 9.22778C28.631 9.38543 28.7072 9.61427 28.7301 9.91685C28.7555 10.2881 28.7784 10.6746 28.7784 11.0458V12.2154C28.7784 12.5739 28.8038 12.8282 28.8521 12.9782C28.941 13.2605 29.1189 13.4003 29.3959 13.4003H30.3489C30.1507 13.2783 29.927 13.0469 29.927 12.8002C29.927 12.6604 30.0109 12.49 30.204 12.3146C30.2828 12.2408 30.4455 12.1137 30.7149 12.0145L30.9995 11.9078L30.5293 11.6306L30.6259 10.5169L30.7479 10.5907L31.0884 10.8093L31.3807 11.0127L31.6399 11.1984L32.1202 11.5721C32.5141 11.8798 32.8623 12.2129 33.1596 12.5714C33.185 13.0342 33.1545 13.4206 32.9487 13.8554C32.8445 14.0716 32.7377 14.2318 32.6234 14.3335C32.4125 14.3157 32.2727 14.2928 32.2015 14.2775L31.9753 14.2292L31.8381 14.1885C31.5662 14.1097 31.3324 14.0233 31.1316 13.9368L30.8063 14.1326L30.5395 14.2775C30.2803 14.4199 30.0338 14.4886 29.8 14.4886H29.3197C28.969 14.4886 28.7047 14.3919 28.5242 14.2038C28.3794 14.0512 28.2701 13.7741 28.1989 13.3672C28.1507 13.0952 28.1252 12.6273 28.1252 11.9637C28.1252 11.5035 28.1125 11.1678 28.0846 10.9568C28.0465 10.6593 27.9651 10.3593 27.8432 10.0567" fill="#236E27"/>
<path d="M18.7759 13.1766C18.7759 13.5224 18.6361 13.9724 18.354 14.5242C18.0897 15.0378 17.8076 15.437 17.5332 15.7014L17.4213 15.6862C17.0478 15.6328 16.4633 15.3582 16.1558 15.1166C16.664 14.8573 17.091 14.603 17.4315 14.3538C17.8712 14.0309 18.1329 13.7207 18.2193 13.4283C18.0948 13.0876 17.8508 12.7977 17.49 12.5587L18.0338 11.4958C18.2295 11.6688 18.4023 11.9256 18.5522 12.2663C18.7047 12.607 18.7784 12.9096 18.7784 13.1766" fill="#236E27"/>
<path d="M10.7324 13.1766C10.7324 13.5224 10.5926 13.9724 10.3106 14.5242C10.0463 15.0378 9.77433 15.4294 9.49987 15.6938C9.03481 15.6404 8.46809 15.4472 8.1123 15.1166C8.62057 14.8573 9.04751 14.603 9.38551 14.3538C9.82516 14.0309 10.0869 13.7207 10.1733 13.4283C10.0488 13.0876 9.80483 12.7977 9.44396 12.5587L9.9878 11.4958C10.1835 11.6688 10.3563 11.9256 10.5062 12.2663C10.6587 12.607 10.735 12.9096 10.735 13.1766" fill="#236E27"/>
<path d="M15.8154 12.8205C15.7951 12.9171 15.7569 13.0417 15.7061 13.1943L15.5841 13.5503L15.5181 13.7206L15.4774 13.802C15.391 13.9749 15.2512 14.13 15.0555 14.2698C14.8598 14.4071 14.6718 14.4758 14.4888 14.4758C14.3058 14.4758 14.1203 14.3868 13.9373 14.2088C13.8027 14.0741 13.7112 13.891 13.6603 13.6647C13.5943 13.9037 13.4977 14.0868 13.3681 14.2164C13.2004 14.3893 12.9716 14.4758 12.6794 14.4758C12.3109 14.4758 12.0161 14.2063 11.795 13.6647C11.7035 13.8656 11.5841 14.0639 11.4214 14.2164C11.2308 14.3893 11.0301 14.4758 10.8141 14.4758H10.4888V13.3875H10.8954C11.1393 13.3875 11.3325 13.2553 11.4799 12.9909C11.5714 12.8231 11.6171 12.6324 11.6171 12.4137H11.9653C11.9653 13.0646 12.2092 13.3875 12.6946 13.3875C12.8802 13.3875 13.0453 13.3341 13.1851 13.2299C13.3579 13.1002 13.4443 12.9527 13.4977 12.7468C13.5282 12.6324 13.5384 12.5205 13.5384 12.4137H13.8941C13.8941 12.7341 13.9373 12.968 14.0238 13.1206C14.1254 13.2985 14.2931 13.3875 14.5269 13.3875C14.6845 13.3875 14.8039 13.357 14.9564 13.3138C15.0759 13.2807 15.1851 13.2248 15.2817 13.1434C15.2817 13.09 15.1978 12.9349 15.0301 12.6807L14.7785 12.2993L15.3859 11.5034C15.6299 11.7602 15.8942 12.4289 15.8103 12.818" fill="#236E27"/>
<path d="M17.0196 9.21509C17.1034 9.6626 17.1162 10.0999 17.1212 10.5576C17.1212 10.7534 17.1187 10.9492 17.1111 11.145C17.0958 11.5111 17.0831 11.8773 17.0602 12.2434C17.0475 12.5511 17.0196 12.8511 16.9789 13.1562L16.9459 13.4054L16.8391 14.0868L16.4427 14.6869L16.4351 13.202C16.43 12.546 16.402 12.0069 16.3538 11.5772C16.3106 11.2213 16.275 10.9619 16.2496 10.7992C16.2064 10.5118 16.153 10.255 16.0869 10.0287C16.397 9.75922 16.7095 9.48715 17.0196 9.21763" fill="#236E27"/>
<path d="M23.8636 12.7468C23.8458 12.851 23.8077 13.0011 23.7417 13.1918L23.6197 13.5477L23.5561 13.7181L23.5155 13.7994C23.4291 13.9723 23.2893 14.1275 23.0936 14.2673C22.8979 14.4046 22.7099 14.4758 22.5244 14.4758C22.3388 14.4758 22.1559 14.3868 21.9729 14.2088C21.8382 14.0741 21.7467 13.8935 21.6984 13.6647C21.6324 13.9037 21.5358 14.0868 21.4062 14.2164C21.2384 14.3893 21.0097 14.4758 20.7175 14.4758C20.349 14.4758 20.0542 14.2063 19.8331 13.6647C19.7416 13.8656 19.6222 14.0639 19.4595 14.2164C19.2715 14.3893 19.0682 14.4758 18.8521 14.4758H18.5269V13.3875H18.9335C19.1774 13.3875 19.3706 13.2553 19.518 12.9909C19.6095 12.8231 19.6552 12.6298 19.6552 12.4137H20.0034C20.0034 13.0621 20.2473 13.3875 20.7327 13.3875C21.0199 13.3875 21.2512 13.2629 21.429 13.0138C21.5256 12.8027 21.5739 12.6019 21.5739 12.4137H21.9297C21.9297 12.7341 21.9729 12.968 22.0593 13.1206C22.1609 13.2985 22.3287 13.3875 22.5625 13.3875C22.72 13.3875 22.8395 13.357 22.992 13.3138C23.1114 13.2807 23.2181 13.2248 23.3173 13.1434C23.3173 13.09 23.2334 12.9349 23.0657 12.6807L22.8141 12.2993L23.424 11.5034C23.6324 11.7246 23.7569 12.1111 23.8331 12.4035C23.8636 12.5179 23.8789 12.6349 23.8611 12.7468" fill="#236E27"/>
<path d="M35.0834 11.8085L34.4988 12.4594L33.8203 11.8975L34.4099 11.2415L35.0834 11.8085Z" fill="#236E27"/>
<path d="M43.3988 10.9821L42.8143 11.633L42.1357 11.0685L42.7253 10.415L43.3988 10.9821Z" fill="#236E27"/>
<path d="M38.2298 12.8331C38.1384 12.6449 38.0062 12.4695 37.8334 12.3067C37.7089 12.2101 37.5971 12.1618 37.4929 12.1618C37.4395 12.1949 37.3658 12.2483 37.2743 12.3245L37.2006 12.4542L37.1117 12.6576C37.1345 12.7009 37.2133 12.7619 37.3531 12.8432L37.4344 12.8687L37.5793 12.9017L37.7241 12.9272H37.8131L38.0138 12.9119L38.1282 12.8865C38.1536 12.8814 38.1866 12.8661 38.2248 12.8382M38.8143 13.2424C38.8143 14.1985 38.4154 15.1342 37.6174 16.0496H37.4547L37.3429 16.0343L37.2286 16.0089L37.1549 16.0012L37.1294 15.9936L37.0888 15.986L36.9744 15.9529L36.8448 15.9122C36.5272 15.8156 36.273 15.6987 36.085 15.5639C37.1955 15.1164 37.9605 14.4858 38.3823 13.6696L38.2273 13.7154L38.0596 13.7586L37.8817 13.784L37.6962 13.7917C37.2972 13.8069 36.9312 13.6798 36.5958 13.4103C36.5958 12.6602 36.794 12.0626 37.1955 11.6126C37.315 11.4778 37.4395 11.3761 37.5666 11.3049C37.9935 11.3049 38.3188 11.5338 38.545 11.994C38.7229 12.35 38.8118 12.767 38.8118 13.2399" fill="#236E27"/>
<path d="M41.4188 13.5707V13.4893L41.4264 13.4156C41.4264 13.1359 41.3476 12.9197 41.1926 12.7672C41.091 12.6655 40.9004 12.5765 40.6259 12.5002C40.4709 12.5968 40.3667 12.7519 40.3184 12.9604C40.3896 13.057 40.5268 13.174 40.7301 13.3088C40.8546 13.3901 41.0833 13.4766 41.4188 13.5681M42.016 13.2376L41.8712 13.5529L41.6933 13.8758C41.5738 14.0919 41.4417 14.2521 41.2968 14.3614H41.0935L41.0046 14.3462L40.8826 14.3131L40.7454 14.2623C40.5827 14.2038 40.4429 14.1199 40.326 14.0156L39.9931 13.7207C39.8101 14.0665 39.5967 14.2394 39.3552 14.2394H38.6157V13.1562H39.4696C39.5128 13.1562 39.6399 13.0876 39.7593 12.8816L40.1075 12.2815C40.265 12.012 40.4099 11.8086 40.5446 11.6738C41.0783 11.6738 41.462 11.801 41.6933 12.0552C41.9093 12.2968 42.016 12.6909 42.016 13.235" fill="#236E27"/>
<path d="M43.5611 13.2984C43.5611 13.6442 43.4213 14.0917 43.1418 14.6435C42.8775 15.1571 42.6081 15.5436 42.3336 15.808L42.2117 15.8004C42.1405 15.7953 42.0744 15.7826 42.0109 15.7597L41.6221 15.6224C41.3298 15.5207 41.1062 15.391 40.9512 15.2334C41.4569 14.974 41.8813 14.7223 42.2218 14.4731C42.6589 14.1502 42.9207 13.8426 43.0071 13.5501C42.8826 13.2094 42.6412 12.9221 42.2777 12.6831L42.819 11.6228C43.0147 11.7957 43.185 12.0525 43.3375 12.3907C43.4874 12.7314 43.5637 13.0314 43.5637 13.2959" fill="#236E27"/>
<path d="M44.4584 9.23267L44.5066 9.5327L44.5295 9.83274L44.5626 10.6744L44.5473 10.9668L44.5295 11.5338L44.5143 11.8643L44.4889 12.2534C44.4889 12.3881 44.4812 12.5686 44.4634 12.7949L44.3821 13.4103L44.2779 14.0892L43.8739 14.6867V13.2069C43.8739 11.8745 43.7544 10.8193 43.5181 10.0438L44.4558 9.23521L44.4584 9.23267Z" fill="#236E27"/>
<path d="M44.8878 8.87435C44.8878 8.96589 44.7506 9.06505 44.4736 9.17438C44.0797 9.32694 43.7849 9.3244 43.3706 9.3244C43.3401 9.43628 43.2715 9.59138 43.1648 9.78462C43.1063 9.7948 42.931 9.77954 42.9106 9.70326C42.9106 9.56596 42.9335 9.39305 42.9793 9.18455C43.0403 8.92266 43.1165 8.79044 43.208 8.78281C43.4672 8.83367 43.6934 8.87943 43.9577 8.84638C44.1788 8.81841 44.4024 8.75739 44.5981 8.67856L44.8751 8.54126L44.8853 8.87435H44.8878Z" fill="#236E27"/>
<path d="M36.3061 12.6935C36.3061 13.0062 36.2629 13.291 36.1765 13.5503C36.1485 13.6571 36.1053 13.8148 36.0469 14.0207C35.836 14.2852 35.5234 14.5165 35.1091 14.7174C34.6136 14.9539 34.085 15.0734 33.5233 15.0734H33.5132V13.9978C33.5767 14.0029 33.6403 14.0055 33.7089 14.0055C34.0647 14.0055 34.4433 13.947 34.8398 13.8275C35.3251 13.6876 35.6454 13.502 35.8029 13.2681C35.6835 12.6477 35.442 12.162 35.0761 11.8111L35.5132 10.7356C35.7241 10.9899 35.9046 11.2975 36.0545 11.6586C36.2222 12.0527 36.3061 12.3985 36.3061 12.6935Z" fill="#236E27"/>
</g>
<defs>
<clipPath id="clip0_174_6054">
<rect width="51.7083" height="34.0667" fill="white" transform="translate(0.645996 0.966553)"/>
</clipPath>
</defs>
</svg>
