<svg width="99" height="52" viewBox="0 0 99 52" fill="none" xmlns="http://www.w3.org/2000/svg">
<rect width="99" height="52" rx="8" fill="white"/>
<g clip-path="url(#clip0_174_6126)">
<path d="M62.7613 21.3398C63.2293 19.6087 64.156 18.8931 65.4436 18.8013C66.7313 18.7095 68.3736 19.257 69.8172 19.8809C71.2638 20.5201 72.4994 21.248 73.4506 22.0035C74.3895 22.7467 75.0257 23.5143 75.0654 24.2942C75.093 25.0741 74.5303 25.8816 73.5668 26.7808C72.5912 27.68 71.2241 28.683 69.6857 29.411C68.1351 30.1267 66.404 30.5824 65.1408 30.3866C63.8654 30.2031 63.0458 29.3712 62.6543 27.5881C62.2537 25.8051 62.2782 23.0709 62.7613 21.3398ZM78.0994 18.0979C76.5121 16.951 73.4262 16.1711 70.3799 15.8591C67.3337 15.5471 64.3243 15.6909 62.269 16.1313C60.2106 16.5595 59.1065 17.2904 58.2992 18.2018C57.4917 19.1133 56.9718 20.2204 57.1797 22.1717C57.3755 24.1383 58.2992 26.9642 59.758 29.515C61.2169 32.081 63.2202 34.3718 64.9665 35.3077C66.6975 36.2588 68.184 35.8429 69.9273 34.8397C71.6706 33.8365 73.6769 32.237 75.3835 30.035C77.0748 27.8481 78.4694 25.0344 79.1209 22.8874C79.7663 20.7281 79.6867 19.2295 78.0994 18.0979Z" fill="#E83875"/>
<path opacity="0.65" d="M62.0579 22.3399C62.226 20.5568 63.0212 19.6974 64.2721 19.3854C65.523 19.0735 67.2419 19.3059 68.7772 19.6852C70.3003 20.0613 71.6552 20.5568 72.7103 21.1318C73.7655 21.719 74.5209 22.3552 74.7014 23.1228C74.8696 23.8905 74.4537 24.7774 73.6462 25.8295C72.851 26.8847 71.6797 28.108 70.288 29.0837C68.8965 30.0593 67.2663 30.8025 65.9909 30.8423C64.7034 30.882 63.7522 30.2031 63.0488 28.524C62.3453 26.8327 61.8896 24.126 62.0579 22.3399ZM76.6007 16.483C74.842 15.6358 71.6797 15.4034 68.6181 15.6236C65.5719 15.8438 62.6298 16.5074 60.6754 17.2904C58.7364 18.0856 57.7729 18.9817 57.1215 20.0246C56.4823 21.0676 56.1704 22.2389 56.7056 24.1382C57.253 26.0406 58.6446 28.6555 60.5348 30.9219C62.4096 33.1881 64.7799 35.1027 66.6547 35.7266C68.5417 36.3505 69.9241 35.6869 71.4717 34.3992C73.007 33.1117 74.7136 31.1818 76.0012 28.7228C77.2888 26.2608 78.1758 23.2543 78.4479 21.0278C78.7109 18.786 78.3715 17.3271 76.6007 16.483Z" fill="#E83875"/>
<path d="M33.3581 26.8244C33.5531 25.9506 33.3999 25.0489 32.5956 24.4675C31.9865 24.0358 31.1683 23.9279 30.4058 23.9C29.713 23.8582 28.5607 23.9 27.6729 23.9139C27.3665 23.9279 27.1333 24.1785 27.1472 24.4814L27.1751 25.6477C27.1751 25.8009 27.1194 25.9262 27.008 26.0376C26.9105 26.149 26.7712 26.2047 26.618 26.2047H24.8286L24.8146 25.5676C24.8007 25.2334 24.7729 25.014 24.6754 24.7356C24.4665 24.1542 23.9269 23.7642 23.248 23.5832C22.3881 23.3465 21.1661 23.3465 20.4733 23.9453C19.7526 24.5545 19.5437 25.86 19.6412 26.7618C19.7666 27.747 20.1809 28.412 21.1661 28.7044L20.7762 29.62L20.0277 31.1728L19.5437 32.1162C19.4463 32.3111 19.5159 32.534 19.7109 32.628L21.5978 33.6132C21.7788 33.7107 22.0156 33.6411 22.1096 33.4461L22.5935 32.5027C23.2445 31.2389 23.5927 30.3511 24.1323 29.063C25.4483 29.1187 26.4753 29.1048 27.6973 29.077C28.0037 29.063 28.2369 28.8123 28.2369 28.5234L28.209 27.3292C28.1951 27.0368 28.4458 26.7896 28.7347 26.7757C29.2883 26.7618 29.8732 26.7479 30.371 26.7896C30.2039 27.3571 30.1204 27.9002 30.3154 28.4955C31.0081 30.6053 34.3225 30.5357 36.1398 30.3129C37.5811 30.1179 38.9005 29.7732 40.0773 28.955C40.7562 28.485 41.449 27.8584 41.63 27.1656C41.7693 26.5842 41.6439 26.1803 41.3515 25.766C41.073 25.3761 40.6308 25.0176 40.1574 24.739C39.0468 24.0741 37.8562 23.712 36.6202 23.3952V23.4091L35.5932 23.1445C35.4818 23.1167 35.3843 23.1306 35.3007 23.1863C35.2033 23.242 35.1475 23.3117 35.1197 23.4231L34.6079 25.491C34.5801 25.5885 34.594 25.686 34.6497 25.7835C34.7055 25.867 34.789 25.9228 34.8865 25.9506L35.9275 26.2012C36.7177 26.4101 37.2574 26.5355 37.9815 26.8662C36.8709 27.4476 34.4165 27.7261 33.1945 27.4198L33.3581 26.8244Z" fill="#E83875"/>
<path d="M42.7789 29.3242C43.0435 30.1423 43.416 30.7515 44.2898 31.1275C45.0105 31.42 45.954 31.4756 46.7721 31.4478C48.1159 31.3921 49.6165 31.0996 50.351 29.8951C50.8628 29.063 50.9325 27.8689 50.6574 26.8558C50.365 25.8148 49.7557 25.0942 48.854 24.4849L50.1561 23.82C51.0438 23.4161 51.9455 23.0715 52.8472 22.7372C52.9447 22.6955 53.0143 22.6258 53.0561 22.5283C53.0979 22.4309 53.0979 22.3334 53.07 22.2359L52.3076 20.2654C52.238 20.0704 52.0152 19.973 51.8236 20.0426C50.8802 20.4047 49.7975 20.805 48.9654 21.181V21.195C47.7435 21.7485 46.1907 22.6084 45.2751 23.538C45.3447 22.2324 45.4979 20.9582 45.6511 19.6248C45.665 19.5134 45.6372 19.4159 45.5675 19.3324C45.4979 19.2488 45.4144 19.207 45.3168 19.1931L43.2071 18.9703C42.9982 18.9425 42.8033 19.0956 42.7754 19.3045L42.664 20.3594C42.469 22.0792 42.3297 23.5763 42.3297 25.4075C42.3194 26.8697 42.375 28.0464 42.7789 29.3242ZM45.6232 28.4503C45.3308 27.5486 45.289 26.6191 45.289 25.606C45.5535 25.9402 45.9122 26.1038 46.3299 26.3127C46.7616 26.5355 47.4405 26.8663 47.7574 27.2283C48.008 27.5346 48.0498 27.9907 47.9941 28.3528C47.4823 28.6034 46.2185 28.6174 45.6372 28.506L45.6232 28.4503Z" fill="#E83875"/>
<path d="M46.8176 19.5863L47.4825 20.9719C47.5799 21.1669 47.8028 21.2504 47.9943 21.153L49.4635 20.4602C49.4635 20.4602 49.4774 20.4602 49.4774 20.4462L51.7229 19.5445C51.9179 19.4749 52.0153 19.2521 51.9457 19.0606L51.3782 17.6193C51.2947 17.4243 51.0719 17.3269 50.8804 17.4104L50.1598 17.6889L49.3138 18.0371C48.3146 18.4409 47.8307 18.6742 46.9847 19.078C46.8036 19.172 46.72 19.3913 46.8176 19.5863Z" fill="#E83875"/>
<path d="M27.0359 22.1557H27.4955C27.969 22.1557 28.345 21.7936 28.345 21.334V20.6656C28.345 20.2061 27.969 19.844 27.4955 19.844H26.6913C26.2317 19.844 25.8418 20.2061 25.8418 20.6656V21.334C25.8418 21.7936 26.2317 22.1557 26.6913 22.1557H27.0359Z" fill="#E83875"/>
<path d="M31.9621 31.2109H28.7801C28.3275 31.2109 27.9619 31.5765 27.9619 32.029V32.7045C27.9619 33.157 28.3275 33.5226 28.7801 33.5226H29.0899H31.9586C32.4112 33.5226 32.7768 33.157 32.7768 32.7045V32.029C32.7802 31.5765 32.4112 31.2109 31.9621 31.2109Z" fill="#E83875"/>
<path d="M33.5498 32.0325V32.7009C33.5498 33.1605 33.9362 33.5226 34.3957 33.5226H34.7543H35.2139C35.6734 33.5226 36.0599 33.1605 36.0599 32.7009V32.0325C36.0599 31.5729 35.6734 31.2109 35.2139 31.2109H34.3993C33.9362 31.2109 33.5498 31.5729 33.5498 32.0325Z" fill="#E83875"/>
</g>
<defs>
<clipPath id="clip0_174_6126">
<rect width="60" height="20.9091" fill="white" transform="translate(19.5 15.5454)"/>
</clipPath>
</defs>
</svg>
