<svg width="71" height="16" viewBox="0 0 71 16" fill="none" xmlns="http://www.w3.org/2000/svg">
<path d="M55.7704 11.4146L53.873 13.3988L55.7704 15.383L56.9351 14.1661C57.3409 13.7417 57.3409 13.0542 56.9351 12.6307L55.7704 11.4146Z" fill="#1D4E86"/>
<path d="M53.8251 10.992L55.8795 8.84482V7.88935C55.8795 5.699 54.1745 3.91675 52.0796 3.91675H49.4519L47.1004 6.37508H52.0796C52.8776 6.37508 53.5276 7.05442 53.5276 7.88935V8.53445H46.3251L43.9736 10.9928V11.638C43.9736 13.8283 45.6784 15.6105 47.7736 15.6105H50.7726L53.124 13.1522H47.7736C46.975 13.1522 46.3251 12.4729 46.3251 11.638V10.9928H53.8251V10.992Z" fill="#1D4E86"/>
<path d="M9.1959 4.2312H2.32915L0.26123 6.37593H9.1959V4.2312Z" fill="#1D4E86"/>
<path d="M25.2269 7.88928C25.2269 5.69894 23.5222 3.91669 21.427 3.91669H18.541L21.5314 1.60986L20.5558 0.389648L15.2684 4.47303V6.37583H21.4262C22.2248 6.37583 22.8747 7.05518 22.8747 7.8901V8.53519H14.9552C14.1823 8.53519 13.5543 7.87788 13.5543 7.07066V4.10892L11.2028 4.97805V7.07066C11.2028 7.87788 10.574 8.53519 9.80182 8.53519H0V10.9936H9.80265C10.7999 10.9936 11.7062 10.5839 12.3785 9.91833C13.051 10.5839 13.9579 10.9936 14.9545 10.9936H23.1723L25.2262 8.84557L25.2269 7.88928Z" fill="#1D4E86"/>
<path d="M27.2674 9.37826L24.4678 12.2324L26.1087 13.9927L29.0968 10.9471C29.4288 10.6091 29.6189 10.1374 29.6189 9.6536V4.82568L27.2674 5.69482V9.37826Z" fill="#1D4E86"/>
<path d="M39.676 2.57339C37.5348 2.61575 35.8409 4.49086 35.8409 6.73007V7.86313C35.8409 8.23375 35.5542 8.53348 35.1997 8.53348H33.5899V1.36377L31.395 2.23372V10.991H35.1997C36.2063 10.991 37.0962 10.4689 37.6392 9.6698L38.5298 10.2172C39.2911 10.6831 40.1567 10.9291 41.0395 10.9291H41.6028L43.6614 8.77787V6.66003C43.6614 4.38089 41.867 2.53103 39.676 2.57339ZM41.3107 8.47245H41.0403C40.5767 8.47245 40.1209 8.34369 39.7204 8.09772L38.1924 7.16016V6.70076C38.1924 5.8194 38.8477 5.06594 39.6916 5.03173C40.5783 4.99752 41.3099 5.74202 41.3099 6.66165V8.47245H41.3107Z" fill="#1D4E86"/>
<path d="M67.1994 3.91738H65.0195L68.0199 1.59752L67.0175 0.606201L64.3582 2.66215L61.2767 5.04554V6.37572H67.2001C67.9989 6.37572 68.6489 7.05506 68.6489 7.88998V8.53513H59.483V1.35967L57.2881 2.2288V10.9927H68.9382L71.0001 8.84142V7.88998C70.9993 5.69882 69.2944 3.91738 67.1994 3.91738Z" fill="#1D4E86"/>
<path d="M64.1048 0.501221L61.2734 2.6932V3.84009L64.745 1.15368L64.1048 0.501221Z" fill="#1D4E86"/>
</svg>
