<svg width="196" height="42" viewBox="0 0 196 42" fill="none" xmlns="http://www.w3.org/2000/svg">
<path d="M153.957 30.4258L148.72 35.9034L153.957 41.3811L157.173 38.0217C158.293 36.85 158.293 34.9523 157.173 33.783L153.957 30.4258Z" fill="#1D4E86"/>
<path d="M148.588 29.2592L154.26 23.3318V20.6941C154.26 14.6476 149.553 9.72754 143.77 9.72754H136.516L130.024 16.5139H143.77C145.972 16.5139 147.767 18.3893 147.767 20.6941V22.475H127.884L121.393 29.2614V31.0424C121.393 37.0889 126.099 42.009 131.883 42.009H140.162L146.653 35.2226H131.883C129.678 35.2226 127.884 33.3472 127.884 31.0424V29.2614H148.588V29.2592Z" fill="#1D4E86"/>
<path d="M25.3864 10.5957H6.43031L0.72168 16.5164H25.3864V10.5957Z" fill="#1D4E86"/>
<path d="M69.6405 20.6939C69.6405 14.6474 64.9344 9.72733 59.1505 9.72733H51.1835L59.4388 3.35919L56.7457 -0.00927734L42.1495 11.2631V16.516H59.1484C61.3531 16.516 63.147 18.3913 63.147 20.6962V22.477H41.2849C39.1512 22.477 37.4175 20.6625 37.4175 18.4341V10.258L30.926 12.6573V18.4341C30.926 20.6625 29.1902 22.477 27.0585 22.477H0V29.2636H27.0608C29.8139 29.2636 32.3156 28.1325 34.1717 26.2952C36.0281 28.1325 38.5316 29.2636 41.2828 29.2636H63.9686L69.6385 23.3338L69.6405 20.6939Z" fill="#1D4E86"/>
<path d="M75.2733 24.804L67.5449 32.6831L72.0749 37.5425L80.3236 29.1349C81.24 28.2017 81.7648 26.8997 81.7648 25.5641V12.2363L75.2733 14.6356V24.804Z" fill="#1D4E86"/>
<path d="M109.528 6.01941C103.617 6.13634 98.9411 11.3127 98.9411 17.4942V20.6221C98.9411 21.6452 98.1497 22.4726 97.1711 22.4726H92.7272V2.68018L86.668 5.08173V29.2568H97.1711C99.9499 29.2568 102.406 27.8154 103.905 25.6095L106.364 27.1206C108.466 28.4067 110.855 29.0859 113.292 29.0859H114.847L120.53 23.1473V17.3008C120.53 11.0091 115.576 5.90248 109.528 6.01941ZM114.041 22.3041H113.294C112.015 22.3041 110.756 21.9487 109.651 21.2697L105.433 18.6815V17.4133C105.433 14.9802 107.242 12.9002 109.571 12.8058C112.019 12.7114 114.039 14.7666 114.039 17.3053V22.3041H114.041Z" fill="#1D4E86"/>
<path d="M185.508 9.72909H179.491L187.773 3.32497L185.006 0.588379L177.665 6.26395L169.158 12.8435V16.5155H185.51C187.715 16.5155 189.51 18.3909 189.51 20.6957V22.4767H164.207V2.66836L158.147 5.06767V29.2609H190.308L196 23.3222V20.6957C195.998 14.6469 191.292 9.72909 185.508 9.72909Z" fill="#1D4E86"/>
<path d="M176.966 0.298828L169.149 6.34992V9.51599L178.733 2.09999L176.966 0.298828Z" fill="#1D4E86"/>
</svg>
