<svg width="76" height="77" viewBox="0 0 76 77" fill="none" xmlns="http://www.w3.org/2000/svg">
<path d="M14.6224 6.37346L14.6719 6.28281C14.7214 6.23748 14.7709 6.23748 14.7709 6.19216L14.8204 6.1015L14.9193 6.01085L15.0183 5.96553L15.1173 5.9202L15.2163 5.87488L15.3153 5.82955L15.3648 5.7389L15.4638 5.69357L15.5627 5.64825L15.6617 5.60292L15.7607 5.5576L15.8597 5.51227L15.9587 5.46695L16.0576 5.42162C16.4536 5.33097 16.8 5.28564 17.1465 5.28564C17.7404 5.28564 18.3342 5.33097 18.9281 5.42162C19.621 5.5576 20.2644 5.7389 20.9078 5.96553C21.6502 6.23748 22.3925 6.50943 23.1349 6.87204C23.9763 7.27997 24.7681 7.6879 25.56 8.14115C27.2922 9.18364 28.9749 10.3168 30.5586 11.5406C32.1918 12.8097 33.726 14.1241 35.1613 15.5292C36.646 16.9796 38.0813 18.5207 39.3681 20.1071C47.9301 30.532 47.1382 35.6538 39.962 45.1721C38.7247 46.8038 37.3884 48.4356 35.9532 49.9313C34.5674 51.3817 33.0827 52.7868 31.5484 54.1012C30.0142 55.3704 28.381 56.5942 26.6983 57.682C25.9559 58.1805 25.164 58.6338 24.3227 59.0417C23.6298 59.4043 22.8874 59.7216 22.1451 60.0389C21.5017 60.3108 20.8583 60.4921 20.1654 60.6281C19.7695 60.7188 19.4231 60.7641 19.0271 60.8094C18.6312 60.8548 18.2353 60.8548 17.8888 60.8094C15.9587 60.6281 14.9688 58.9058 14.0285 57.546C13.4346 56.6848 12.9397 55.7783 12.4943 54.8718C12.0488 53.9199 11.6034 52.9228 11.2075 51.835C10.8116 50.7472 10.5146 49.7047 10.1682 48.5715C8.43598 42.3619 7.44616 35.7444 7.89158 29.2629C7.99056 27.9484 8.08954 26.634 8.23802 25.3195C8.38649 24.0051 8.53497 22.7813 8.73293 21.5122C8.9309 20.2431 9.17835 19.0646 9.42581 17.9315C9.67327 16.7983 10.0197 15.6652 10.3661 14.5774C10.7126 13.4896 11.1085 12.4924 11.5044 11.4952C11.9004 10.5434 12.3953 9.6369 12.9397 8.73039C13.4346 7.91453 13.979 7.09867 14.6224 6.37346ZM38.9721 29.9881C38.7742 29.0362 38.5762 28.0844 38.2792 27.0872C37.9328 25.8634 37.4874 24.6396 36.943 23.4612C36.4976 22.3734 35.9037 21.3309 35.3098 20.3337C34.7159 19.4272 34.0725 18.566 33.3301 17.7048C27.7376 11.6312 22.9369 19.8805 18.8787 31.5745C15.7607 43.4951 15.2658 52.8321 23.4813 50.2033C24.5702 49.8406 25.6095 49.4327 26.6488 48.8888C27.7376 48.2996 28.8264 47.665 29.8162 46.9398C30.9545 46.1693 31.9939 45.3081 33.0332 44.4469C33.825 43.767 34.5674 43.0418 35.2603 42.3166C35.9532 41.5914 36.5965 40.8209 37.2399 40.0503C39.863 36.6962 39.7145 33.8861 38.9721 29.9881Z" fill="white"/>
<path d="M19.668 39.1445C19.569 38.8725 19.5195 38.6006 19.5195 38.2833C19.5195 37.966 19.569 37.6941 19.668 37.3768C19.767 37.0142 19.9155 36.6969 20.1134 36.3796C20.4104 35.8357 20.7568 35.3371 21.2022 34.8839C21.6477 34.34 22.1921 33.7961 22.7365 33.3428C23.3304 32.7989 23.9737 32.3003 24.6666 31.7564C25.409 31.2125 26.2009 30.6686 27.0422 30.1247C30.6056 27.9491 34.4659 26.1361 38.4747 24.731C40.5039 24.0511 42.533 23.4165 44.6611 22.9633C58.1228 19.8358 62.0821 22.782 66.3878 33.3881C67.1302 35.2465 67.7736 37.1502 68.318 39.0538C69.3573 42.8612 69.9512 46.8045 70.0007 50.7478C70.0007 51.6997 70.0007 52.6062 69.9017 53.4674C69.8027 54.3285 69.7037 55.0991 69.5553 55.8243C69.4068 56.5042 69.2583 57.184 69.0109 57.8639C68.8129 58.4532 68.5654 58.9971 68.2685 59.541C68.0705 59.8583 67.8726 60.1302 67.6251 60.4022C67.5261 60.5381 67.3776 60.6288 67.2787 60.7648C67.1797 60.8554 67.0312 60.9461 66.8827 61.0367L66.6848 61.1727C66.6353 61.218 66.5363 61.2633 66.4868 61.2633C66.3383 61.3087 66.1898 61.3993 66.0414 61.3993C64.0617 61.9432 62.0326 62.2152 60.0034 62.2152C57.7763 62.2152 55.4997 61.9886 53.3221 61.5806C50.897 61.1274 48.5709 60.5381 46.2448 59.8129L45.354 59.541L44.4632 59.2237L43.5723 58.9064L42.6815 58.5891C42.3845 58.4985 42.0876 58.3625 41.7906 58.2265L40.8503 57.8639C35.7032 55.8696 30.9025 52.4249 26.8442 48.8441C26.0029 48.0736 25.211 47.3484 24.4687 46.5779C23.7263 45.8073 23.0829 45.0368 22.4395 44.2209C21.8456 43.4504 21.3012 42.5892 20.8558 41.7734C20.3609 40.9122 19.965 40.051 19.668 39.1445ZM52.8272 27.6771C51.8869 27.4052 50.9465 27.2239 50.0062 27.0426C48.7194 26.8159 47.4821 26.68 46.1954 26.6346C45.0076 26.5893 43.8198 26.6346 42.632 26.7706C41.5432 26.9066 40.4049 27.0879 39.3656 27.4052C31.1995 29.7168 35.6537 37.6034 43.4733 46.3512C51.9858 54.3739 59.7065 58.8611 61.8346 50.3852C62.1316 49.2521 62.3295 48.1189 62.4285 46.9858C62.5275 45.762 62.577 44.5382 62.478 43.3144C62.4285 42 62.28 40.6855 62.0326 39.3711C61.8841 38.3739 61.6367 37.3768 61.3892 36.4703C61.1417 35.5638 60.8448 34.6119 60.4983 33.7054C59.0136 29.7621 56.539 28.6743 52.8272 27.6771Z" fill="white"/>
<path d="M39.267 31.8918C39.168 31.3026 39.069 30.668 38.9701 30.0334C38.7721 29.0816 38.5246 28.1298 38.2772 27.1326C37.9307 25.9088 37.4853 24.685 36.9409 23.4612C36.4955 22.3734 35.9016 21.3309 35.3077 20.3338C34.8128 19.5179 34.2189 18.7474 33.625 18.0222L34.9613 15.2573L35.2087 15.5293C36.6935 16.9797 38.1287 18.5208 39.4155 20.1072C43.9192 25.6822 45.8494 29.7615 45.5524 33.7501C44.2656 33.3422 42.9294 33.0249 41.5931 32.7077L41.0982 32.481L40.8507 32.3904C40.4548 32.2544 40.0094 32.1184 39.564 32.0731C39.465 31.9824 39.366 31.9371 39.267 31.8918Z" fill="white"/>
<path d="M54.7065 20.6056C48.6686 20.6509 42.6801 21.784 37.1371 24.005C37.0876 23.8237 36.9886 23.6424 36.9391 23.5064C36.5432 22.6452 36.1473 21.784 35.6523 20.9682C41.6903 18.6566 48.1736 17.4328 54.7065 17.2515V20.6056Z" fill="white"/>
<path d="M15.6123 63.0767H23.8774V70.646H15.6123V63.0767Z" fill="white"/>
</svg>
