<svg width="140" height="49" viewBox="0 0 140 49" fill="none" xmlns="http://www.w3.org/2000/svg">
<g clip-path="url(#clip0_148_1830)">
<path d="M100.943 13.593C102.035 9.55383 104.198 7.88393 107.202 7.66983C110.207 7.45574 114.039 8.73315 117.407 10.189C120.783 11.6804 123.666 13.3789 125.885 15.1416C128.076 16.8757 129.56 18.6669 129.653 20.4867C129.717 22.3064 128.404 24.1905 126.156 26.2886C123.88 28.3867 120.69 30.7272 117.1 32.4257C113.482 34.0957 109.443 35.1591 106.496 34.7022C103.52 34.2741 101.607 32.333 100.694 28.1724C99.759 24.0121 99.816 17.6322 100.943 13.593ZM136.732 6.02848C133.029 3.35236 125.828 1.53258 118.72 0.804674C111.612 0.0767682 104.59 0.412176 99.7946 1.43981C94.9918 2.4389 92.4156 4.14448 90.5317 6.2711C88.6476 8.39775 87.4345 10.9811 87.9196 15.5341C88.3766 20.1227 90.5317 26.7167 93.9356 32.6684C97.3397 38.6559 102.014 44.0009 106.089 46.1847C110.128 48.4039 113.596 47.4335 117.664 45.0927C121.732 42.752 126.413 39.0197 130.395 33.8817C134.342 28.7791 137.596 22.2138 139.116 17.204C140.622 12.1657 140.436 8.66892 136.732 6.02848Z" fill="#E83875"/>
<path opacity="0.65" d="M99.3023 15.9265C99.6947 11.766 101.55 9.76071 104.469 9.03279C107.388 8.30488 111.398 8.84725 114.981 9.73216C118.535 10.6099 121.696 11.766 124.158 13.1076C126.62 14.4778 128.383 15.9622 128.804 17.7534C129.196 19.5446 128.226 21.6141 126.342 24.069C124.486 26.5311 121.753 29.3856 118.506 31.6621C115.259 33.9385 111.455 35.6726 108.48 35.7655C105.475 35.8582 103.256 34.2741 101.614 30.3562C99.973 26.4097 98.9097 20.0941 99.3023 15.9265ZM133.236 2.26042C129.132 0.283655 121.753 -0.258705 114.61 0.255112C107.502 0.768927 100.637 2.31751 96.0766 4.14442C91.5522 5.99987 89.3042 8.09081 87.7841 10.5243C86.2927 12.9578 85.5649 15.691 86.8137 20.1227C88.0911 24.5615 91.338 30.663 95.7484 35.9511C100.123 41.2391 105.654 45.7064 110.028 47.1622C114.431 48.618 117.657 47.0695 121.268 44.065C124.85 41.0607 128.832 36.5576 131.837 30.8199C134.841 25.0753 136.911 18.0602 137.546 12.865C138.16 7.63407 137.367 4.23005 133.236 2.26042Z" fill="#E83875"/>
<path d="M32.3355 26.3903C32.7905 24.3514 32.4331 22.2474 30.5565 20.8909C29.1351 19.8836 27.226 19.6317 25.4469 19.5667C23.8303 19.4693 21.1416 19.5668 19.0701 19.5992C18.3553 19.6317 17.811 20.2166 17.8435 20.9234L17.9085 23.6446C17.9085 24.0021 17.7785 24.2946 17.5186 24.5544C17.2911 24.8145 16.9662 24.9443 16.6088 24.9443H12.4333L12.4008 23.4578C12.3683 22.678 12.3033 22.1662 12.0759 21.5164C11.5885 20.1597 10.3294 19.2499 8.74531 18.8275C6.73884 18.2751 3.88757 18.2751 2.27101 19.6723C0.589483 21.0939 0.10207 24.1402 0.329524 26.2442C0.621965 28.5431 1.58865 30.0946 3.88757 30.777L2.97776 32.9135L1.23121 36.5365L0.102071 38.7379C-0.125383 39.1927 0.0370927 39.7126 0.492 39.9319L4.89485 42.2309C5.31726 42.4583 5.86965 42.296 6.08898 41.841L7.21814 39.6396C8.73721 36.6907 9.54955 34.6194 10.8087 31.6136C13.8793 31.7436 16.2757 31.7112 19.127 31.6463C19.8419 31.6136 20.3861 31.0288 20.3861 30.3547L20.3211 27.5682C20.2886 26.8858 20.8735 26.3091 21.5477 26.2766C22.8393 26.2442 24.2041 26.2117 25.3657 26.3091C24.9758 27.6334 24.7808 28.9006 25.2358 30.2895C26.8522 35.2125 34.5857 35.05 38.8262 34.5301C42.1892 34.0751 45.2679 33.2709 48.0136 31.3618C49.5978 30.2651 51.2143 28.803 51.6367 27.1864C51.9616 25.8299 51.6691 24.8875 50.9867 23.9208C50.337 23.011 49.3052 22.1744 48.2005 21.5245C45.6092 19.9729 42.8311 19.1281 39.9471 18.3889V18.4213L37.5508 17.804C37.2909 17.739 37.0633 17.7715 36.8684 17.9015C36.641 18.0314 36.5109 18.1939 36.446 18.4538L35.2518 23.2791C35.1869 23.5065 35.2193 23.7339 35.3494 23.9615C35.4794 24.1565 35.6743 24.2865 35.9017 24.3514L38.3307 24.9362C40.1747 25.4237 41.4338 25.7162 43.1234 26.4879C40.5321 27.8444 34.8051 28.4944 31.9537 27.7795L32.3355 26.3903Z" fill="#E83875"/>
<path d="M54.3173 32.2228C54.9346 34.1316 55.8038 35.5533 57.8427 36.4306C59.5242 37.113 61.7258 37.2428 63.6347 37.1779C66.7703 37.0479 70.2716 36.3655 71.9855 33.5549C73.1797 31.6133 73.3422 28.8271 72.7003 26.4632C72.0182 24.0342 70.5965 22.3528 68.4925 20.9312L71.5307 19.3796C73.6021 18.4373 75.7061 17.6331 77.8099 16.8533C78.0375 16.7558 78.1998 16.5933 78.2974 16.3659C78.395 16.1384 78.3949 15.911 78.3298 15.6835L76.551 11.0857C76.3885 10.6308 75.8686 10.4033 75.4216 10.5658C73.2203 11.4106 70.6939 12.3448 68.7523 13.2221V13.2546C65.9012 14.5462 62.2782 16.5527 60.1417 18.7216C60.3042 15.6754 60.6616 12.7022 61.019 9.59097C61.0515 9.33102 60.9866 9.10358 60.8241 8.90862C60.6616 8.71366 60.4667 8.61617 60.2391 8.5837L55.3164 8.06379C54.8289 7.99881 54.3741 8.35622 54.309 8.84363L54.0492 11.305C53.5942 15.318 53.2692 18.811 53.2692 23.0839C53.245 26.4957 53.3748 29.2414 54.3173 32.2228ZM60.9539 30.1836C60.2717 28.0798 60.1742 25.9109 60.1742 23.547C60.7914 24.3268 61.6283 24.7086 62.6029 25.196C63.6103 25.7159 65.1944 26.4876 65.9337 27.3323C66.5185 28.0472 66.6161 29.1114 66.486 29.9562C65.2918 30.5411 62.3431 30.5737 60.9866 30.3137L60.9539 30.1836Z" fill="#E83875"/>
<path d="M63.7407 9.50169L65.2922 12.7348C65.5195 13.1897 66.0395 13.3847 66.4864 13.1572L69.9145 11.5407C69.9145 11.5407 69.9469 11.5407 69.9469 11.5082L75.1865 9.40422C75.6413 9.24175 75.8687 8.72185 75.7062 8.27508L74.3822 4.912C74.1872 4.45709 73.6673 4.22963 73.2206 4.42459L71.5391 5.07446L69.5651 5.8868C67.2337 6.82911 66.1046 7.37337 64.1306 8.3157C63.708 8.53501 63.5131 9.04677 63.7407 9.50169Z" fill="#E83875"/>
<path d="M17.5837 15.4969H18.656C19.7607 15.4969 20.6381 14.6521 20.6381 13.5798V12.0201C20.6381 10.9478 19.7607 10.103 18.656 10.103H16.7795C15.7072 10.103 14.7974 10.9478 14.7974 12.0201V13.5798C14.7974 14.6521 15.7072 15.4969 16.7795 15.4969H17.5837Z" fill="#E83875"/>
<path d="M29.0778 36.626H21.6531C20.5971 36.626 19.7441 37.4789 19.7441 38.5349V40.1109C19.7441 41.1669 20.5971 42.0198 21.6531 42.0198H22.3761H29.0698C30.1259 42.0198 30.9788 41.1669 30.9788 40.1109V38.5349C30.9869 37.4789 30.1259 36.626 29.0778 36.626Z" fill="#E83875"/>
<path d="M32.7827 38.5429V40.1026C32.7827 41.1749 33.6842 42.0198 34.7565 42.0198H35.5933H36.6656C37.7379 42.0198 38.6396 41.1749 38.6396 40.1026V38.5429C38.6396 37.4706 37.7379 36.626 36.6656 36.626H34.7648C33.6842 36.626 32.7827 37.4706 32.7827 38.5429Z" fill="#E83875"/>
</g>
<defs>
<clipPath id="clip0_148_1830">
<rect width="140" height="48.7879" fill="white" transform="translate(0 0.0727539)"/>
</clipPath>
</defs>
</svg>
